%TF.GenerationSoftware,KiCad,Pcbnew,9.0.0*%
%TF.CreationDate,2025-06-27T17:55:50-04:00*%
%TF.ProjectId,shipwreckedpcb,73686970-7772-4656-936b-65647063622e,rev?*%
%TF.SameCoordinates,Original*%
%TF.FileFunction,Soldermask,Top*%
%TF.FilePolarity,Negative*%
%FSLAX46Y46*%
G04 Gerber Fmt 4.6, Leading zero omitted, Abs format (unit mm)*
G04 Created by KiCad (PCBNEW 9.0.0) date 2025-06-27 17:55:50*
%MOMM*%
%LPD*%
G01*
G04 APERTURE LIST*
G04 Aperture macros list*
%AMFreePoly0*
4,1,170,4.379609,3.546960,4.535920,3.546960,4.898723,3.510067,5.255932,3.436659,5.378179,3.398303,5.391241,3.398300,5.427284,3.383359,5.427956,3.382685,5.603882,3.327489,5.939002,3.183677,6.257853,3.006700,6.365856,2.931528,6.385296,2.923467,6.403238,2.905509,6.557165,2.798374,6.833864,2.560835,7.085112,2.296522,7.308331,2.008147,7.501231,1.698668,7.661831,1.371262,
7.788484,1.029288,7.879891,0.676256,7.935113,0.315787,7.953583,-0.048419,7.940186,-0.098419,7.903583,-0.135022,7.853583,-0.148419,7.803582,-0.135022,7.766980,-0.098419,7.753584,-0.048419,7.753583,0.129767,7.716332,0.484188,7.642238,0.832773,7.532113,1.171704,7.453900,1.347372,7.453583,-0.931716,7.451659,-0.951225,7.436723,-0.987271,7.409128,-1.014857,7.373078,-1.029784,
7.334061,-1.029778,7.298014,-1.014841,7.270428,-0.987247,7.255501,-0.951197,7.253583,-0.931688,7.253943,1.654465,7.255867,1.673974,7.268097,1.703491,7.208976,1.805895,6.999504,2.094207,6.761045,2.359043,6.496208,2.597503,6.429628,2.645875,6.427595,-2.431742,6.425666,-2.451249,6.410721,-2.487292,6.383119,-2.514871,6.347065,-2.529789,6.308047,-2.529773,6.272005,-2.514827,
6.244426,-2.487225,6.229508,-2.451172,6.227595,-2.431662,6.229686,2.791143,6.207897,2.806974,5.899270,2.985161,5.573706,3.130111,5.471667,3.163265,5.470020,-2.931729,5.468095,-2.951237,5.453153,-2.987281,5.425556,-3.014864,5.389503,-3.029786,5.350485,-3.029776,5.314442,-3.014835,5.286859,-2.987237,5.271937,-2.951184,5.270021,-2.931675,5.271685,3.228243,5.234775,3.240236,
4.886190,3.314330,4.531769,3.351581,4.453583,3.351581,4.453583,-3.431702,4.451662,-3.451211,4.436729,-3.487259,4.409140,-3.514849,4.373092,-3.529781,4.334074,-3.529781,4.298026,-3.514849,4.270436,-3.487259,4.255504,-3.451211,4.253583,-3.431702,4.253583,3.351581,4.175397,3.351581,3.820976,3.314330,3.472391,3.240236,3.453223,3.234007,3.453223,-2.931702,3.451302,-2.951211,
3.436370,-2.987260,3.408780,-3.014849,3.372732,-3.029781,3.333714,-3.029781,3.297666,-3.014849,3.270076,-2.987259,3.255144,-2.951211,3.253223,-2.931701,3.253223,3.169023,3.133460,3.130111,2.807897,2.985162,2.499269,2.806974,2.453956,2.774052,2.453223,-2.431715,2.451299,-2.451225,2.436362,-2.487271,2.408768,-2.514857,2.372718,-2.529783,2.333700,-2.529778,2.297654,-2.514841,
2.270068,-2.487247,2.255141,-2.451198,2.253223,-2.431688,2.253936,2.628730,2.210957,2.597503,1.946121,2.359043,1.707661,2.094207,1.498190,1.805895,1.320003,1.497267,1.175053,1.171704,1.064928,0.832773,0.990834,0.484188,0.953583,0.129767,0.953583,-0.048418,0.952500,-0.052460,0.952500,-0.123681,0.948465,-0.143966,0.936975,-0.161162,0.919779,-0.172651,0.899494,-0.176687,
-0.899494,-0.176687,-0.919779,-0.172651,-0.936975,-0.161162,-0.948465,-0.143966,-0.952500,-0.123681,-0.952500,0.123681,-0.948465,0.143966,-0.936975,0.161162,-0.919779,0.172651,-0.899494,0.176687,0.764999,0.176688,0.772053,0.315787,0.827275,0.676256,0.918682,1.029288,1.045335,1.371262,1.205935,1.698668,1.398835,2.008147,1.622054,2.296522,1.873302,2.560835,2.150001,2.798374,
2.449313,3.006700,2.768164,3.183677,3.103284,3.327489,3.451234,3.436659,3.808443,3.510067,4.171246,3.546960,4.327556,3.546960,4.334074,3.549660,4.373092,3.549660,4.379609,3.546960,4.379609,3.546960,$1*%
%AMFreePoly1*
4,1,168,4.909119,3.306965,4.936716,3.279382,4.951657,3.243338,4.953583,3.223829,4.955237,-3.290761,5.234775,-3.231344,5.573706,-3.121219,5.753583,-3.041133,5.753583,2.723804,5.755504,2.743313,5.770435,2.779361,5.798026,2.806952,5.834074,2.821883,5.873092,2.821883,5.909140,2.806951,5.936730,2.779361,5.951662,2.743313,5.953583,2.723804,5.953583,-2.944910,6.207897,-2.798082,
6.496209,-2.588611,6.754297,-2.356226,6.753583,2.057295,6.755501,2.076804,6.770427,2.112855,6.798013,2.140449,6.834058,2.155387,6.873076,2.155393,6.909127,2.140467,6.936721,2.112881,6.951659,2.076836,6.953583,2.057327,6.954261,-2.135563,6.999505,-2.085315,7.208976,-1.797003,7.387163,-1.488375,7.532113,-1.162812,7.642238,-0.823881,7.716332,-0.475296,7.753584,-0.120875,
7.753583,0.057311,7.766980,0.107311,7.803583,0.143914,7.853583,0.157311,7.903584,0.143914,7.940186,0.107311,7.953582,0.057311,7.935113,-0.306895,7.879891,-0.667364,7.788484,-1.020396,7.661831,-1.362370,7.501231,-1.689776,7.308331,-1.999255,7.085112,-2.287630,6.941488,-2.438720,6.937459,-2.448456,6.909874,-2.476051,6.903490,-2.478696,6.833864,-2.551943,6.557165,-2.789482,
6.257853,-2.997808,5.939003,-3.174785,5.603882,-3.318596,5.255932,-3.427767,4.898723,-3.501175,4.878040,-3.503278,4.874801,-3.504621,4.864810,-3.504623,4.535920,-3.538068,4.171246,-3.538068,3.841111,-3.504497,3.834074,-3.504497,3.831784,-3.503548,3.808442,-3.501175,3.451234,-3.427767,3.103284,-3.318597,2.768165,-3.174785,2.449313,-2.997808,2.150001,-2.789482,1.873302,-2.551943,
1.802748,-2.477720,1.798759,-2.476069,1.771165,-2.448483,1.768234,-2.441412,1.622054,-2.287630,1.398835,-1.999255,1.205935,-1.689776,1.045335,-1.362371,0.918682,-1.020396,0.827275,-0.667364,0.772052,-0.306895,0.764999,-0.167806,-0.902159,-0.167807,-0.921423,-0.163975,-0.937755,-0.153062,-0.948668,-0.136730,-0.952500,-0.117465,-0.952500,0.117465,-0.948668,0.136730,-0.937755,0.153062,
-0.921423,0.163975,-0.902159,0.167807,0.902159,0.167807,0.921423,0.163975,0.937755,0.153062,0.948668,0.136730,0.952500,0.117465,0.952500,0.061352,0.953583,0.057311,0.953583,-0.120876,0.990833,-0.475296,1.064928,-0.823881,1.175053,-1.162812,1.320003,-1.488375,1.498190,-1.797003,1.707661,-2.085315,1.754261,-2.137070,1.753583,2.057295,1.755501,2.076804,1.770427,2.112855,
1.798013,2.140449,1.834058,2.155387,1.873076,2.155393,1.909127,2.140467,1.936721,2.112881,1.951659,2.076836,1.953583,2.057327,1.954297,-2.357512,2.210957,-2.588611,2.499269,-2.798082,2.753583,-2.944910,2.753583,2.723804,2.755504,2.743313,2.770436,2.779361,2.798026,2.806951,2.834074,2.821884,2.873092,2.821883,2.909141,2.806951,2.936730,2.779361,2.951662,2.743313,
2.953583,2.723804,2.953583,-2.996069,2.951662,-3.015578,2.943023,-3.036430,3.133460,-3.121219,3.472391,-3.231344,3.753583,-3.291113,3.753583,3.223804,3.755504,3.243313,3.770435,3.279361,3.798025,3.306951,3.834074,3.321883,3.873093,3.321883,3.909140,3.306951,3.936730,3.279361,3.951662,3.243314,3.953583,3.223804,3.953583,-3.319375,4.175397,-3.342690,4.531770,-3.342689,
4.755244,-3.319200,4.753583,3.223779,4.755500,3.243288,4.770422,3.279340,4.798004,3.306937,4.834049,3.321878,4.873067,3.321888,4.909119,3.306965,4.909119,3.306965,$1*%
G04 Aperture macros list end*
%ADD10C,3.952636*%
%ADD11C,1.800000*%
%ADD12R,1.800000X1.800000*%
%ADD13R,1.700000X1.700000*%
%ADD14C,3.300000*%
%ADD15R,2.000000X2.000000*%
%ADD16C,2.000000*%
%ADD17O,1.700000X1.700000*%
%ADD18C,0.650000*%
%ADD19O,2.100000X1.000000*%
%ADD20O,1.800000X1.000000*%
%ADD21FreePoly0,225.000000*%
%ADD22FreePoly1,225.000000*%
%ADD23FreePoly0,270.000000*%
%ADD24FreePoly1,270.000000*%
%ADD25FreePoly0,315.000000*%
%ADD26FreePoly1,315.000000*%
%ADD27FreePoly0,0.000000*%
%ADD28FreePoly1,0.000000*%
%ADD29FreePoly0,45.000000*%
%ADD30FreePoly1,45.000000*%
%ADD31FreePoly0,90.000000*%
%ADD32FreePoly1,90.000000*%
%ADD33FreePoly0,135.000000*%
%ADD34FreePoly1,135.000000*%
%ADD35FreePoly0,180.000000*%
%ADD36FreePoly1,180.000000*%
%ADD37R,1.000000X1.250000*%
%ADD38R,1.250000X1.000000*%
%ADD39C,0.900000*%
%ADD40C,0.600000*%
G04 APERTURE END LIST*
%TO.C,SW3*%
D10*
X126275667Y-134237366D02*
G75*
G02*
X122323031Y-134237366I-1976318J0D01*
G01*
X122323031Y-134237366D02*
G75*
G02*
X126275667Y-134237366I1976318J0D01*
G01*
%TO.C,SW4*%
X149102404Y-134428579D02*
G75*
G02*
X145149768Y-134428579I-1976318J0D01*
G01*
X145149768Y-134428579D02*
G75*
G02*
X149102404Y-134428579I1976318J0D01*
G01*
%TO.C,SW5*%
X171930255Y-134236530D02*
G75*
G02*
X167977619Y-134236530I-1976318J0D01*
G01*
X167977619Y-134236530D02*
G75*
G02*
X171930255Y-134236530I1976318J0D01*
G01*
%TO.C,SW6*%
X172121468Y-112050000D02*
G75*
G02*
X168168832Y-112050000I-1976318J0D01*
G01*
X168168832Y-112050000D02*
G75*
G02*
X172121468Y-112050000I1976318J0D01*
G01*
%TO.C,SW7*%
X171929419Y-89000000D02*
G75*
G02*
X167976783Y-89000000I-1976318J0D01*
G01*
X167976783Y-89000000D02*
G75*
G02*
X171929419Y-89000000I1976318J0D01*
G01*
%TO.C,SW8*%
X149376318Y-80700000D02*
G75*
G02*
X145423682Y-80700000I-1976318J0D01*
G01*
X145423682Y-80700000D02*
G75*
G02*
X149376318Y-80700000I1976318J0D01*
G01*
%TO.C,SW9*%
X126275667Y-90400000D02*
G75*
G02*
X122323031Y-90400000I-1976318J0D01*
G01*
X122323031Y-90400000D02*
G75*
G02*
X126275667Y-90400000I1976318J0D01*
G01*
%TO.C,SW10*%
X126275667Y-109849993D02*
G75*
G02*
X122323031Y-109849993I-1976318J0D01*
G01*
X122323031Y-109849993D02*
G75*
G02*
X126275667Y-109849993I1976318J0D01*
G01*
%TD*%
D11*
%TO.C,D5*%
X145735000Y-64950000D03*
D12*
X148275000Y-64950000D03*
%TD*%
D13*
%TO.C,AE1*%
X152050000Y-64800000D03*
%TD*%
D14*
%TO.C,BT1*%
X139555000Y-99550000D03*
X154545000Y-99550000D03*
D15*
X139555000Y-72385000D03*
D16*
X154545000Y-72385000D03*
%TD*%
D13*
%TO.C,BZ1*%
X175475000Y-80350000D03*
D17*
X175475000Y-82890000D03*
%TD*%
D18*
%TO.C,J1*%
X122465000Y-83140000D03*
X122465000Y-77360000D03*
D19*
X122965000Y-84570000D03*
D20*
X118785000Y-84570000D03*
D19*
X122965000Y-75930000D03*
D20*
X118785000Y-75930000D03*
%TD*%
D13*
%TO.C,J5*%
X176175000Y-107725000D03*
D17*
X176175000Y-110265000D03*
X176175000Y-112805000D03*
%TD*%
D13*
%TO.C,J8*%
X153915147Y-140125000D03*
D17*
X151375147Y-140125000D03*
X148835147Y-140125000D03*
%TD*%
D13*
%TO.C,J9*%
X140184853Y-140125000D03*
D17*
X142724853Y-140125000D03*
X145264853Y-140125000D03*
%TD*%
D21*
%TO.C,SW3*%
X127598769Y-131395179D03*
D22*
X127135257Y-130931667D03*
%TD*%
D23*
%TO.C,SW4*%
X147449399Y-130085807D03*
D24*
X146793893Y-130085807D03*
%TD*%
D25*
%TO.C,SW5*%
X167111750Y-130937110D03*
D26*
X166648238Y-131400622D03*
%TD*%
D27*
%TO.C,SW6*%
X165802378Y-111726687D03*
D28*
X165802378Y-112382193D03*
%TD*%
D29*
%TO.C,SW7*%
X166653681Y-91842187D03*
D30*
X167117193Y-92305699D03*
%TD*%
D31*
%TO.C,SW8*%
X147076687Y-85042772D03*
D32*
X147732193Y-85042772D03*
%TD*%
D33*
%TO.C,SW9*%
X127141536Y-93699420D03*
D34*
X127605048Y-93235908D03*
%TD*%
D35*
%TO.C,SW10*%
X128642121Y-110173306D03*
D36*
X128642121Y-109517800D03*
%TD*%
D16*
%TO.C,SW11*%
X155221264Y-132200000D03*
X161721264Y-132200000D03*
X155221264Y-136700000D03*
X161721264Y-136700000D03*
%TD*%
D37*
%TO.C,SW12*%
X135780984Y-138575000D03*
X135780984Y-130825000D03*
%TD*%
D16*
%TO.C,SW13*%
X165950000Y-97700000D03*
X172450000Y-97700000D03*
X165950000Y-102200000D03*
X172450000Y-102200000D03*
%TD*%
D38*
%TO.C,SW14*%
X173175000Y-123150000D03*
X165425000Y-123150000D03*
%TD*%
D16*
%TO.C,SW15*%
X130350000Y-78700000D03*
X136850000Y-78700000D03*
X130350000Y-83200000D03*
X136850000Y-83200000D03*
%TD*%
D37*
%TO.C,SW16*%
X160600000Y-76625000D03*
X160600000Y-84375000D03*
%TD*%
D16*
%TO.C,SW17*%
X126950000Y-123950000D03*
X120450000Y-123950000D03*
X126950000Y-119450000D03*
X120450000Y-119450000D03*
%TD*%
D38*
%TO.C,SW18*%
X120225000Y-100100000D03*
X127975000Y-100100000D03*
%TD*%
D39*
%TO.C,SW19*%
X132425000Y-63820000D03*
X135425000Y-63820000D03*
%TD*%
D40*
%TO.C,U4*%
X124150000Y-68500000D03*
X125650000Y-68500000D03*
X124900000Y-69000000D03*
X124150000Y-69500000D03*
X125650000Y-69500000D03*
%TD*%
M02*
