%TF.GenerationSoftware,KiCad,Pcbnew,9.0.0*%
%TF.CreationDate,2025-06-27T17:55:50-04:00*%
%TF.ProjectId,shipwreckedpcb,73686970-7772-4656-936b-65647063622e,rev?*%
%TF.SameCoordinates,Original*%
%TF.FileFunction,Legend,Top*%
%TF.FilePolarity,Positive*%
%FSLAX46Y46*%
G04 Gerber Fmt 4.6, Leading zero omitted, Abs format (unit mm)*
G04 Created by KiCad (PCBNEW 9.0.0) date 2025-06-27 17:55:50*
%MOMM*%
%LPD*%
G01*
G04 APERTURE LIST*
%ADD10C,0.100000*%
%ADD11C,0.150000*%
%ADD12C,0.000000*%
%ADD13C,0.120000*%
G04 APERTURE END LIST*
D10*
X132170550Y-66818693D02*
X132003884Y-66580598D01*
X131884836Y-66818693D02*
X131884836Y-66318693D01*
X131884836Y-66318693D02*
X132075312Y-66318693D01*
X132075312Y-66318693D02*
X132122931Y-66342503D01*
X132122931Y-66342503D02*
X132146741Y-66366312D01*
X132146741Y-66366312D02*
X132170550Y-66413931D01*
X132170550Y-66413931D02*
X132170550Y-66485360D01*
X132170550Y-66485360D02*
X132146741Y-66532979D01*
X132146741Y-66532979D02*
X132122931Y-66556788D01*
X132122931Y-66556788D02*
X132075312Y-66580598D01*
X132075312Y-66580598D02*
X131884836Y-66580598D01*
X132384836Y-66818693D02*
X132384836Y-66485360D01*
X132384836Y-66318693D02*
X132361027Y-66342503D01*
X132361027Y-66342503D02*
X132384836Y-66366312D01*
X132384836Y-66366312D02*
X132408646Y-66342503D01*
X132408646Y-66342503D02*
X132384836Y-66318693D01*
X132384836Y-66318693D02*
X132384836Y-66366312D01*
X132575312Y-66485360D02*
X132694360Y-66818693D01*
X132694360Y-66818693D02*
X132813407Y-66485360D01*
X133194359Y-66794884D02*
X133146740Y-66818693D01*
X133146740Y-66818693D02*
X133051502Y-66818693D01*
X133051502Y-66818693D02*
X133003883Y-66794884D01*
X133003883Y-66794884D02*
X132980074Y-66747264D01*
X132980074Y-66747264D02*
X132980074Y-66556788D01*
X132980074Y-66556788D02*
X133003883Y-66509169D01*
X133003883Y-66509169D02*
X133051502Y-66485360D01*
X133051502Y-66485360D02*
X133146740Y-66485360D01*
X133146740Y-66485360D02*
X133194359Y-66509169D01*
X133194359Y-66509169D02*
X133218169Y-66556788D01*
X133218169Y-66556788D02*
X133218169Y-66604407D01*
X133218169Y-66604407D02*
X132980074Y-66652026D01*
X133432454Y-66818693D02*
X133432454Y-66485360D01*
X133432454Y-66580598D02*
X133456264Y-66532979D01*
X133456264Y-66532979D02*
X133480073Y-66509169D01*
X133480073Y-66509169D02*
X133527692Y-66485360D01*
X133527692Y-66485360D02*
X133575311Y-66485360D01*
X134361025Y-66818693D02*
X134122930Y-66818693D01*
X134122930Y-66818693D02*
X134122930Y-66318693D01*
X134718168Y-66794884D02*
X134670549Y-66818693D01*
X134670549Y-66818693D02*
X134575311Y-66818693D01*
X134575311Y-66818693D02*
X134527692Y-66794884D01*
X134527692Y-66794884D02*
X134503883Y-66747264D01*
X134503883Y-66747264D02*
X134503883Y-66556788D01*
X134503883Y-66556788D02*
X134527692Y-66509169D01*
X134527692Y-66509169D02*
X134575311Y-66485360D01*
X134575311Y-66485360D02*
X134670549Y-66485360D01*
X134670549Y-66485360D02*
X134718168Y-66509169D01*
X134718168Y-66509169D02*
X134741978Y-66556788D01*
X134741978Y-66556788D02*
X134741978Y-66604407D01*
X134741978Y-66604407D02*
X134503883Y-66652026D01*
X134908644Y-66485360D02*
X135003882Y-66818693D01*
X135003882Y-66818693D02*
X135099120Y-66580598D01*
X135099120Y-66580598D02*
X135194358Y-66818693D01*
X135194358Y-66818693D02*
X135289596Y-66485360D01*
X135480073Y-66818693D02*
X135480073Y-66485360D01*
X135480073Y-66318693D02*
X135456264Y-66342503D01*
X135456264Y-66342503D02*
X135480073Y-66366312D01*
X135480073Y-66366312D02*
X135503883Y-66342503D01*
X135503883Y-66342503D02*
X135480073Y-66318693D01*
X135480073Y-66318693D02*
X135480073Y-66366312D01*
X135694359Y-66794884D02*
X135741978Y-66818693D01*
X135741978Y-66818693D02*
X135837216Y-66818693D01*
X135837216Y-66818693D02*
X135884835Y-66794884D01*
X135884835Y-66794884D02*
X135908644Y-66747264D01*
X135908644Y-66747264D02*
X135908644Y-66723455D01*
X135908644Y-66723455D02*
X135884835Y-66675836D01*
X135884835Y-66675836D02*
X135837216Y-66652026D01*
X135837216Y-66652026D02*
X135765787Y-66652026D01*
X135765787Y-66652026D02*
X135718168Y-66628217D01*
X135718168Y-66628217D02*
X135694359Y-66580598D01*
X135694359Y-66580598D02*
X135694359Y-66556788D01*
X135694359Y-66556788D02*
X135718168Y-66509169D01*
X135718168Y-66509169D02*
X135765787Y-66485360D01*
X135765787Y-66485360D02*
X135837216Y-66485360D01*
X135837216Y-66485360D02*
X135884835Y-66509169D01*
X131884836Y-67623665D02*
X131884836Y-67123665D01*
X131884836Y-67123665D02*
X132051503Y-67480808D01*
X132051503Y-67480808D02*
X132218169Y-67123665D01*
X132218169Y-67123665D02*
X132218169Y-67623665D01*
X132670551Y-67623665D02*
X132670551Y-67361760D01*
X132670551Y-67361760D02*
X132646741Y-67314141D01*
X132646741Y-67314141D02*
X132599122Y-67290332D01*
X132599122Y-67290332D02*
X132503884Y-67290332D01*
X132503884Y-67290332D02*
X132456265Y-67314141D01*
X132670551Y-67599856D02*
X132622932Y-67623665D01*
X132622932Y-67623665D02*
X132503884Y-67623665D01*
X132503884Y-67623665D02*
X132456265Y-67599856D01*
X132456265Y-67599856D02*
X132432456Y-67552236D01*
X132432456Y-67552236D02*
X132432456Y-67504617D01*
X132432456Y-67504617D02*
X132456265Y-67456998D01*
X132456265Y-67456998D02*
X132503884Y-67433189D01*
X132503884Y-67433189D02*
X132622932Y-67433189D01*
X132622932Y-67433189D02*
X132670551Y-67409379D01*
X132861027Y-67623665D02*
X133122932Y-67290332D01*
X132861027Y-67290332D02*
X133122932Y-67623665D01*
X133694360Y-67623665D02*
X133694360Y-67123665D01*
X133980074Y-67623665D02*
X133765789Y-67337951D01*
X133980074Y-67123665D02*
X133694360Y-67409379D01*
X134384836Y-67599856D02*
X134337217Y-67623665D01*
X134337217Y-67623665D02*
X134241979Y-67623665D01*
X134241979Y-67623665D02*
X134194360Y-67599856D01*
X134194360Y-67599856D02*
X134170551Y-67552236D01*
X134170551Y-67552236D02*
X134170551Y-67361760D01*
X134170551Y-67361760D02*
X134194360Y-67314141D01*
X134194360Y-67314141D02*
X134241979Y-67290332D01*
X134241979Y-67290332D02*
X134337217Y-67290332D01*
X134337217Y-67290332D02*
X134384836Y-67314141D01*
X134384836Y-67314141D02*
X134408646Y-67361760D01*
X134408646Y-67361760D02*
X134408646Y-67409379D01*
X134408646Y-67409379D02*
X134170551Y-67456998D01*
X134622931Y-67290332D02*
X134622931Y-67623665D01*
X134622931Y-67337951D02*
X134646741Y-67314141D01*
X134646741Y-67314141D02*
X134694360Y-67290332D01*
X134694360Y-67290332D02*
X134765788Y-67290332D01*
X134765788Y-67290332D02*
X134813407Y-67314141D01*
X134813407Y-67314141D02*
X134837217Y-67361760D01*
X134837217Y-67361760D02*
X134837217Y-67623665D01*
X135289598Y-67623665D02*
X135289598Y-67123665D01*
X135289598Y-67599856D02*
X135241979Y-67623665D01*
X135241979Y-67623665D02*
X135146741Y-67623665D01*
X135146741Y-67623665D02*
X135099122Y-67599856D01*
X135099122Y-67599856D02*
X135075312Y-67576046D01*
X135075312Y-67576046D02*
X135051503Y-67528427D01*
X135051503Y-67528427D02*
X135051503Y-67385570D01*
X135051503Y-67385570D02*
X135075312Y-67337951D01*
X135075312Y-67337951D02*
X135099122Y-67314141D01*
X135099122Y-67314141D02*
X135146741Y-67290332D01*
X135146741Y-67290332D02*
X135241979Y-67290332D01*
X135241979Y-67290332D02*
X135289598Y-67314141D01*
X135741979Y-67623665D02*
X135741979Y-67361760D01*
X135741979Y-67361760D02*
X135718169Y-67314141D01*
X135718169Y-67314141D02*
X135670550Y-67290332D01*
X135670550Y-67290332D02*
X135575312Y-67290332D01*
X135575312Y-67290332D02*
X135527693Y-67314141D01*
X135741979Y-67599856D02*
X135694360Y-67623665D01*
X135694360Y-67623665D02*
X135575312Y-67623665D01*
X135575312Y-67623665D02*
X135527693Y-67599856D01*
X135527693Y-67599856D02*
X135503884Y-67552236D01*
X135503884Y-67552236D02*
X135503884Y-67504617D01*
X135503884Y-67504617D02*
X135527693Y-67456998D01*
X135527693Y-67456998D02*
X135575312Y-67433189D01*
X135575312Y-67433189D02*
X135694360Y-67433189D01*
X135694360Y-67433189D02*
X135741979Y-67409379D01*
X136051503Y-67623665D02*
X136003884Y-67599856D01*
X136003884Y-67599856D02*
X135980074Y-67552236D01*
X135980074Y-67552236D02*
X135980074Y-67123665D01*
X136313408Y-67623665D02*
X136265789Y-67599856D01*
X136265789Y-67599856D02*
X136241979Y-67552236D01*
X136241979Y-67552236D02*
X136241979Y-67123665D01*
X131861027Y-68285780D02*
X132099122Y-68285780D01*
X131813408Y-68428637D02*
X131980074Y-67928637D01*
X131980074Y-67928637D02*
X132146741Y-68428637D01*
X132384836Y-68428637D02*
X132337217Y-68404828D01*
X132337217Y-68404828D02*
X132313407Y-68357208D01*
X132313407Y-68357208D02*
X132313407Y-67928637D01*
X132765788Y-68404828D02*
X132718169Y-68428637D01*
X132718169Y-68428637D02*
X132622931Y-68428637D01*
X132622931Y-68428637D02*
X132575312Y-68404828D01*
X132575312Y-68404828D02*
X132551503Y-68357208D01*
X132551503Y-68357208D02*
X132551503Y-68166732D01*
X132551503Y-68166732D02*
X132575312Y-68119113D01*
X132575312Y-68119113D02*
X132622931Y-68095304D01*
X132622931Y-68095304D02*
X132718169Y-68095304D01*
X132718169Y-68095304D02*
X132765788Y-68119113D01*
X132765788Y-68119113D02*
X132789598Y-68166732D01*
X132789598Y-68166732D02*
X132789598Y-68214351D01*
X132789598Y-68214351D02*
X132551503Y-68261970D01*
X132956264Y-68428637D02*
X133218169Y-68095304D01*
X132956264Y-68095304D02*
X133218169Y-68428637D01*
X133789597Y-68428637D02*
X133789597Y-67928637D01*
X133789597Y-67928637D02*
X133980073Y-67928637D01*
X133980073Y-67928637D02*
X134027692Y-67952447D01*
X134027692Y-67952447D02*
X134051502Y-67976256D01*
X134051502Y-67976256D02*
X134075311Y-68023875D01*
X134075311Y-68023875D02*
X134075311Y-68095304D01*
X134075311Y-68095304D02*
X134051502Y-68142923D01*
X134051502Y-68142923D02*
X134027692Y-68166732D01*
X134027692Y-68166732D02*
X133980073Y-68190542D01*
X133980073Y-68190542D02*
X133789597Y-68190542D01*
X134503883Y-68428637D02*
X134503883Y-68166732D01*
X134503883Y-68166732D02*
X134480073Y-68119113D01*
X134480073Y-68119113D02*
X134432454Y-68095304D01*
X134432454Y-68095304D02*
X134337216Y-68095304D01*
X134337216Y-68095304D02*
X134289597Y-68119113D01*
X134503883Y-68404828D02*
X134456264Y-68428637D01*
X134456264Y-68428637D02*
X134337216Y-68428637D01*
X134337216Y-68428637D02*
X134289597Y-68404828D01*
X134289597Y-68404828D02*
X134265788Y-68357208D01*
X134265788Y-68357208D02*
X134265788Y-68309589D01*
X134265788Y-68309589D02*
X134289597Y-68261970D01*
X134289597Y-68261970D02*
X134337216Y-68238161D01*
X134337216Y-68238161D02*
X134456264Y-68238161D01*
X134456264Y-68238161D02*
X134503883Y-68214351D01*
X134741978Y-68428637D02*
X134741978Y-68095304D01*
X134741978Y-68190542D02*
X134765788Y-68142923D01*
X134765788Y-68142923D02*
X134789597Y-68119113D01*
X134789597Y-68119113D02*
X134837216Y-68095304D01*
X134837216Y-68095304D02*
X134884835Y-68095304D01*
X135051502Y-68428637D02*
X135051502Y-67928637D01*
X135099121Y-68238161D02*
X135241978Y-68428637D01*
X135241978Y-68095304D02*
X135051502Y-68285780D01*
X131884836Y-68971704D02*
X132051503Y-68971704D01*
X132122931Y-69233609D02*
X131884836Y-69233609D01*
X131884836Y-69233609D02*
X131884836Y-68733609D01*
X131884836Y-68733609D02*
X132122931Y-68733609D01*
X132289598Y-68900276D02*
X132408646Y-69233609D01*
X132408646Y-69233609D02*
X132527693Y-68900276D01*
X132932455Y-69233609D02*
X132932455Y-68971704D01*
X132932455Y-68971704D02*
X132908645Y-68924085D01*
X132908645Y-68924085D02*
X132861026Y-68900276D01*
X132861026Y-68900276D02*
X132765788Y-68900276D01*
X132765788Y-68900276D02*
X132718169Y-68924085D01*
X132932455Y-69209800D02*
X132884836Y-69233609D01*
X132884836Y-69233609D02*
X132765788Y-69233609D01*
X132765788Y-69233609D02*
X132718169Y-69209800D01*
X132718169Y-69209800D02*
X132694360Y-69162180D01*
X132694360Y-69162180D02*
X132694360Y-69114561D01*
X132694360Y-69114561D02*
X132718169Y-69066942D01*
X132718169Y-69066942D02*
X132765788Y-69043133D01*
X132765788Y-69043133D02*
X132884836Y-69043133D01*
X132884836Y-69043133D02*
X132932455Y-69019323D01*
X133170550Y-68900276D02*
X133170550Y-69233609D01*
X133170550Y-68947895D02*
X133194360Y-68924085D01*
X133194360Y-68924085D02*
X133241979Y-68900276D01*
X133241979Y-68900276D02*
X133313407Y-68900276D01*
X133313407Y-68900276D02*
X133361026Y-68924085D01*
X133361026Y-68924085D02*
X133384836Y-68971704D01*
X133384836Y-68971704D02*
X133384836Y-69233609D01*
X134265788Y-68757419D02*
X134218169Y-68733609D01*
X134218169Y-68733609D02*
X134146740Y-68733609D01*
X134146740Y-68733609D02*
X134075312Y-68757419D01*
X134075312Y-68757419D02*
X134027693Y-68805038D01*
X134027693Y-68805038D02*
X134003883Y-68852657D01*
X134003883Y-68852657D02*
X133980074Y-68947895D01*
X133980074Y-68947895D02*
X133980074Y-69019323D01*
X133980074Y-69019323D02*
X134003883Y-69114561D01*
X134003883Y-69114561D02*
X134027693Y-69162180D01*
X134027693Y-69162180D02*
X134075312Y-69209800D01*
X134075312Y-69209800D02*
X134146740Y-69233609D01*
X134146740Y-69233609D02*
X134194359Y-69233609D01*
X134194359Y-69233609D02*
X134265788Y-69209800D01*
X134265788Y-69209800D02*
X134289597Y-69185990D01*
X134289597Y-69185990D02*
X134289597Y-69019323D01*
X134289597Y-69019323D02*
X134194359Y-69019323D01*
X134718169Y-69233609D02*
X134718169Y-68971704D01*
X134718169Y-68971704D02*
X134694359Y-68924085D01*
X134694359Y-68924085D02*
X134646740Y-68900276D01*
X134646740Y-68900276D02*
X134551502Y-68900276D01*
X134551502Y-68900276D02*
X134503883Y-68924085D01*
X134718169Y-69209800D02*
X134670550Y-69233609D01*
X134670550Y-69233609D02*
X134551502Y-69233609D01*
X134551502Y-69233609D02*
X134503883Y-69209800D01*
X134503883Y-69209800D02*
X134480074Y-69162180D01*
X134480074Y-69162180D02*
X134480074Y-69114561D01*
X134480074Y-69114561D02*
X134503883Y-69066942D01*
X134503883Y-69066942D02*
X134551502Y-69043133D01*
X134551502Y-69043133D02*
X134670550Y-69043133D01*
X134670550Y-69043133D02*
X134718169Y-69019323D01*
X134956264Y-68900276D02*
X134956264Y-69233609D01*
X134956264Y-68947895D02*
X134980074Y-68924085D01*
X134980074Y-68924085D02*
X135027693Y-68900276D01*
X135027693Y-68900276D02*
X135099121Y-68900276D01*
X135099121Y-68900276D02*
X135146740Y-68924085D01*
X135146740Y-68924085D02*
X135170550Y-68971704D01*
X135170550Y-68971704D02*
X135170550Y-69233609D01*
X131150000Y-87050000D02*
X162950000Y-87050000D01*
X162950000Y-124370000D01*
X131150000Y-124370000D01*
X131150000Y-87050000D01*
D11*
X149396033Y-65616666D02*
X149396033Y-65283333D01*
X149596033Y-65683333D02*
X148896033Y-65450000D01*
X148896033Y-65450000D02*
X149596033Y-65216666D01*
X149229366Y-64983333D02*
X149229366Y-64750000D01*
X149596033Y-64650000D02*
X149596033Y-64983333D01*
X149596033Y-64983333D02*
X148896033Y-64983333D01*
X148896033Y-64983333D02*
X148896033Y-64650000D01*
X149596033Y-63983333D02*
X149596033Y-64383333D01*
X149596033Y-64183333D02*
X148896033Y-64183333D01*
X148896033Y-64183333D02*
X148996033Y-64250000D01*
X148996033Y-64250000D02*
X149062700Y-64316667D01*
X149062700Y-64316667D02*
X149096033Y-64383333D01*
X174858333Y-77529366D02*
X174958333Y-77562700D01*
X174958333Y-77562700D02*
X174991666Y-77596033D01*
X174991666Y-77596033D02*
X175024999Y-77662700D01*
X175024999Y-77662700D02*
X175024999Y-77762700D01*
X175024999Y-77762700D02*
X174991666Y-77829366D01*
X174991666Y-77829366D02*
X174958333Y-77862700D01*
X174958333Y-77862700D02*
X174891666Y-77896033D01*
X174891666Y-77896033D02*
X174624999Y-77896033D01*
X174624999Y-77896033D02*
X174624999Y-77196033D01*
X174624999Y-77196033D02*
X174858333Y-77196033D01*
X174858333Y-77196033D02*
X174924999Y-77229366D01*
X174924999Y-77229366D02*
X174958333Y-77262700D01*
X174958333Y-77262700D02*
X174991666Y-77329366D01*
X174991666Y-77329366D02*
X174991666Y-77396033D01*
X174991666Y-77396033D02*
X174958333Y-77462700D01*
X174958333Y-77462700D02*
X174924999Y-77496033D01*
X174924999Y-77496033D02*
X174858333Y-77529366D01*
X174858333Y-77529366D02*
X174624999Y-77529366D01*
X175258333Y-77196033D02*
X175724999Y-77196033D01*
X175724999Y-77196033D02*
X175258333Y-77896033D01*
X175258333Y-77896033D02*
X175724999Y-77896033D01*
X176358333Y-77896033D02*
X175958333Y-77896033D01*
X176158333Y-77896033D02*
X176158333Y-77196033D01*
X176158333Y-77196033D02*
X176091666Y-77296033D01*
X176091666Y-77296033D02*
X176025000Y-77362700D01*
X176025000Y-77362700D02*
X175958333Y-77396033D01*
X175941666Y-104571033D02*
X175941666Y-105071033D01*
X175941666Y-105071033D02*
X175908333Y-105171033D01*
X175908333Y-105171033D02*
X175841666Y-105237700D01*
X175841666Y-105237700D02*
X175741666Y-105271033D01*
X175741666Y-105271033D02*
X175675000Y-105271033D01*
X176608333Y-104571033D02*
X176274999Y-104571033D01*
X176274999Y-104571033D02*
X176241666Y-104904366D01*
X176241666Y-104904366D02*
X176274999Y-104871033D01*
X176274999Y-104871033D02*
X176341666Y-104837700D01*
X176341666Y-104837700D02*
X176508333Y-104837700D01*
X176508333Y-104837700D02*
X176574999Y-104871033D01*
X176574999Y-104871033D02*
X176608333Y-104904366D01*
X176608333Y-104904366D02*
X176641666Y-104971033D01*
X176641666Y-104971033D02*
X176641666Y-105137700D01*
X176641666Y-105137700D02*
X176608333Y-105204366D01*
X176608333Y-105204366D02*
X176574999Y-105237700D01*
X176574999Y-105237700D02*
X176508333Y-105271033D01*
X176508333Y-105271033D02*
X176341666Y-105271033D01*
X176341666Y-105271033D02*
X176274999Y-105237700D01*
X176274999Y-105237700D02*
X176241666Y-105204366D01*
X155801180Y-144743333D02*
X156301180Y-144743333D01*
X156301180Y-144743333D02*
X156401180Y-144776666D01*
X156401180Y-144776666D02*
X156467847Y-144843333D01*
X156467847Y-144843333D02*
X156501180Y-144943333D01*
X156501180Y-144943333D02*
X156501180Y-145010000D01*
X156101180Y-144310000D02*
X156067847Y-144376667D01*
X156067847Y-144376667D02*
X156034513Y-144410000D01*
X156034513Y-144410000D02*
X155967847Y-144443333D01*
X155967847Y-144443333D02*
X155934513Y-144443333D01*
X155934513Y-144443333D02*
X155867847Y-144410000D01*
X155867847Y-144410000D02*
X155834513Y-144376667D01*
X155834513Y-144376667D02*
X155801180Y-144310000D01*
X155801180Y-144310000D02*
X155801180Y-144176667D01*
X155801180Y-144176667D02*
X155834513Y-144110000D01*
X155834513Y-144110000D02*
X155867847Y-144076667D01*
X155867847Y-144076667D02*
X155934513Y-144043333D01*
X155934513Y-144043333D02*
X155967847Y-144043333D01*
X155967847Y-144043333D02*
X156034513Y-144076667D01*
X156034513Y-144076667D02*
X156067847Y-144110000D01*
X156067847Y-144110000D02*
X156101180Y-144176667D01*
X156101180Y-144176667D02*
X156101180Y-144310000D01*
X156101180Y-144310000D02*
X156134513Y-144376667D01*
X156134513Y-144376667D02*
X156167847Y-144410000D01*
X156167847Y-144410000D02*
X156234513Y-144443333D01*
X156234513Y-144443333D02*
X156367847Y-144443333D01*
X156367847Y-144443333D02*
X156434513Y-144410000D01*
X156434513Y-144410000D02*
X156467847Y-144376667D01*
X156467847Y-144376667D02*
X156501180Y-144310000D01*
X156501180Y-144310000D02*
X156501180Y-144176667D01*
X156501180Y-144176667D02*
X156467847Y-144110000D01*
X156467847Y-144110000D02*
X156434513Y-144076667D01*
X156434513Y-144076667D02*
X156367847Y-144043333D01*
X156367847Y-144043333D02*
X156234513Y-144043333D01*
X156234513Y-144043333D02*
X156167847Y-144076667D01*
X156167847Y-144076667D02*
X156134513Y-144110000D01*
X156134513Y-144110000D02*
X156101180Y-144176667D01*
X137030886Y-144738333D02*
X137530886Y-144738333D01*
X137530886Y-144738333D02*
X137630886Y-144771666D01*
X137630886Y-144771666D02*
X137697553Y-144838333D01*
X137697553Y-144838333D02*
X137730886Y-144938333D01*
X137730886Y-144938333D02*
X137730886Y-145005000D01*
X137730886Y-144371667D02*
X137730886Y-144238333D01*
X137730886Y-144238333D02*
X137697553Y-144171667D01*
X137697553Y-144171667D02*
X137664219Y-144138333D01*
X137664219Y-144138333D02*
X137564219Y-144071667D01*
X137564219Y-144071667D02*
X137430886Y-144038333D01*
X137430886Y-144038333D02*
X137164219Y-144038333D01*
X137164219Y-144038333D02*
X137097553Y-144071667D01*
X137097553Y-144071667D02*
X137064219Y-144105000D01*
X137064219Y-144105000D02*
X137030886Y-144171667D01*
X137030886Y-144171667D02*
X137030886Y-144305000D01*
X137030886Y-144305000D02*
X137064219Y-144371667D01*
X137064219Y-144371667D02*
X137097553Y-144405000D01*
X137097553Y-144405000D02*
X137164219Y-144438333D01*
X137164219Y-144438333D02*
X137330886Y-144438333D01*
X137330886Y-144438333D02*
X137397553Y-144405000D01*
X137397553Y-144405000D02*
X137430886Y-144371667D01*
X137430886Y-144371667D02*
X137464219Y-144305000D01*
X137464219Y-144305000D02*
X137464219Y-144171667D01*
X137464219Y-144171667D02*
X137430886Y-144105000D01*
X137430886Y-144105000D02*
X137397553Y-144071667D01*
X137397553Y-144071667D02*
X137330886Y-144038333D01*
D10*
X121894785Y-137808577D02*
X121847644Y-137714296D01*
X121847644Y-137714296D02*
X121729793Y-137596444D01*
X121729793Y-137596444D02*
X121659082Y-137572874D01*
X121659082Y-137572874D02*
X121611942Y-137572874D01*
X121611942Y-137572874D02*
X121541231Y-137596444D01*
X121541231Y-137596444D02*
X121494091Y-137643585D01*
X121494091Y-137643585D02*
X121470521Y-137714296D01*
X121470521Y-137714296D02*
X121470521Y-137761436D01*
X121470521Y-137761436D02*
X121494091Y-137832147D01*
X121494091Y-137832147D02*
X121564801Y-137949998D01*
X121564801Y-137949998D02*
X121588372Y-138020709D01*
X121588372Y-138020709D02*
X121588372Y-138067849D01*
X121588372Y-138067849D02*
X121564801Y-138138560D01*
X121564801Y-138138560D02*
X121517661Y-138185700D01*
X121517661Y-138185700D02*
X121446950Y-138209270D01*
X121446950Y-138209270D02*
X121399810Y-138209270D01*
X121399810Y-138209270D02*
X121329099Y-138185700D01*
X121329099Y-138185700D02*
X121211248Y-138067849D01*
X121211248Y-138067849D02*
X121164108Y-137973568D01*
X120975546Y-137832146D02*
X121352669Y-137219321D01*
X121352669Y-137219321D02*
X120904835Y-137478593D01*
X120904835Y-137478593D02*
X121164107Y-137030759D01*
X121164107Y-137030759D02*
X120551282Y-137407882D01*
X120409860Y-137266461D02*
X120103447Y-136960048D01*
X120103447Y-136960048D02*
X120457001Y-136936478D01*
X120457001Y-136936478D02*
X120386290Y-136865767D01*
X120386290Y-136865767D02*
X120362720Y-136795057D01*
X120362720Y-136795057D02*
X120362720Y-136747916D01*
X120362720Y-136747916D02*
X120386290Y-136677205D01*
X120386290Y-136677205D02*
X120504141Y-136559354D01*
X120504141Y-136559354D02*
X120574852Y-136535784D01*
X120574852Y-136535784D02*
X120621992Y-136535784D01*
X120621992Y-136535784D02*
X120692703Y-136559354D01*
X120692703Y-136559354D02*
X120834124Y-136700776D01*
X120834124Y-136700776D02*
X120857694Y-136771486D01*
X120857694Y-136771486D02*
X120857694Y-136818627D01*
X147951029Y-138654090D02*
X147851029Y-138620756D01*
X147851029Y-138620756D02*
X147684363Y-138620756D01*
X147684363Y-138620756D02*
X147617696Y-138654090D01*
X147617696Y-138654090D02*
X147584363Y-138687423D01*
X147584363Y-138687423D02*
X147551029Y-138754090D01*
X147551029Y-138754090D02*
X147551029Y-138820756D01*
X147551029Y-138820756D02*
X147584363Y-138887423D01*
X147584363Y-138887423D02*
X147617696Y-138920756D01*
X147617696Y-138920756D02*
X147684363Y-138954090D01*
X147684363Y-138954090D02*
X147817696Y-138987423D01*
X147817696Y-138987423D02*
X147884363Y-139020756D01*
X147884363Y-139020756D02*
X147917696Y-139054090D01*
X147917696Y-139054090D02*
X147951029Y-139120756D01*
X147951029Y-139120756D02*
X147951029Y-139187423D01*
X147951029Y-139187423D02*
X147917696Y-139254090D01*
X147917696Y-139254090D02*
X147884363Y-139287423D01*
X147884363Y-139287423D02*
X147817696Y-139320756D01*
X147817696Y-139320756D02*
X147651029Y-139320756D01*
X147651029Y-139320756D02*
X147551029Y-139287423D01*
X147317696Y-139320756D02*
X147151029Y-138620756D01*
X147151029Y-138620756D02*
X147017696Y-139120756D01*
X147017696Y-139120756D02*
X146884362Y-138620756D01*
X146884362Y-138620756D02*
X146717696Y-139320756D01*
X146151029Y-139087423D02*
X146151029Y-138620756D01*
X146317696Y-139354090D02*
X146484362Y-138854090D01*
X146484362Y-138854090D02*
X146051029Y-138854090D01*
X173525148Y-136641093D02*
X173430867Y-136688234D01*
X173430867Y-136688234D02*
X173313015Y-136806085D01*
X173313015Y-136806085D02*
X173289445Y-136876796D01*
X173289445Y-136876796D02*
X173289445Y-136923936D01*
X173289445Y-136923936D02*
X173313015Y-136994647D01*
X173313015Y-136994647D02*
X173360156Y-137041787D01*
X173360156Y-137041787D02*
X173430867Y-137065357D01*
X173430867Y-137065357D02*
X173478007Y-137065357D01*
X173478007Y-137065357D02*
X173548718Y-137041787D01*
X173548718Y-137041787D02*
X173666569Y-136971077D01*
X173666569Y-136971077D02*
X173737280Y-136947506D01*
X173737280Y-136947506D02*
X173784420Y-136947506D01*
X173784420Y-136947506D02*
X173855131Y-136971077D01*
X173855131Y-136971077D02*
X173902271Y-137018217D01*
X173902271Y-137018217D02*
X173925841Y-137088928D01*
X173925841Y-137088928D02*
X173925841Y-137136068D01*
X173925841Y-137136068D02*
X173902271Y-137206779D01*
X173902271Y-137206779D02*
X173784420Y-137324630D01*
X173784420Y-137324630D02*
X173690139Y-137371770D01*
X173548717Y-137560332D02*
X172935892Y-137183209D01*
X172935892Y-137183209D02*
X173195164Y-137631043D01*
X173195164Y-137631043D02*
X172747330Y-137371771D01*
X172747330Y-137371771D02*
X173124453Y-137984596D01*
X172700189Y-138408861D02*
X172935892Y-138173158D01*
X172935892Y-138173158D02*
X172723760Y-137913886D01*
X172723760Y-137913886D02*
X172723760Y-137961026D01*
X172723760Y-137961026D02*
X172700189Y-138031737D01*
X172700189Y-138031737D02*
X172582338Y-138149588D01*
X172582338Y-138149588D02*
X172511628Y-138173158D01*
X172511628Y-138173158D02*
X172464487Y-138173158D01*
X172464487Y-138173158D02*
X172393776Y-138149588D01*
X172393776Y-138149588D02*
X172275925Y-138031737D01*
X172275925Y-138031737D02*
X172252355Y-137961026D01*
X172252355Y-137961026D02*
X172252355Y-137913886D01*
X172252355Y-137913886D02*
X172275925Y-137843175D01*
X172275925Y-137843175D02*
X172393776Y-137725324D01*
X172393776Y-137725324D02*
X172464487Y-137701754D01*
X172464487Y-137701754D02*
X172511628Y-137701754D01*
X175889700Y-114816666D02*
X175856366Y-114916666D01*
X175856366Y-114916666D02*
X175856366Y-115083333D01*
X175856366Y-115083333D02*
X175889700Y-115149999D01*
X175889700Y-115149999D02*
X175923033Y-115183333D01*
X175923033Y-115183333D02*
X175989700Y-115216666D01*
X175989700Y-115216666D02*
X176056366Y-115216666D01*
X176056366Y-115216666D02*
X176123033Y-115183333D01*
X176123033Y-115183333D02*
X176156366Y-115149999D01*
X176156366Y-115149999D02*
X176189700Y-115083333D01*
X176189700Y-115083333D02*
X176223033Y-114949999D01*
X176223033Y-114949999D02*
X176256366Y-114883333D01*
X176256366Y-114883333D02*
X176289700Y-114849999D01*
X176289700Y-114849999D02*
X176356366Y-114816666D01*
X176356366Y-114816666D02*
X176423033Y-114816666D01*
X176423033Y-114816666D02*
X176489700Y-114849999D01*
X176489700Y-114849999D02*
X176523033Y-114883333D01*
X176523033Y-114883333D02*
X176556366Y-114949999D01*
X176556366Y-114949999D02*
X176556366Y-115116666D01*
X176556366Y-115116666D02*
X176523033Y-115216666D01*
X176556366Y-115450000D02*
X175856366Y-115616666D01*
X175856366Y-115616666D02*
X176356366Y-115750000D01*
X176356366Y-115750000D02*
X175856366Y-115883333D01*
X175856366Y-115883333D02*
X176556366Y-116050000D01*
X176556366Y-116616666D02*
X176556366Y-116483333D01*
X176556366Y-116483333D02*
X176523033Y-116416666D01*
X176523033Y-116416666D02*
X176489700Y-116383333D01*
X176489700Y-116383333D02*
X176389700Y-116316666D01*
X176389700Y-116316666D02*
X176256366Y-116283333D01*
X176256366Y-116283333D02*
X175989700Y-116283333D01*
X175989700Y-116283333D02*
X175923033Y-116316666D01*
X175923033Y-116316666D02*
X175889700Y-116350000D01*
X175889700Y-116350000D02*
X175856366Y-116416666D01*
X175856366Y-116416666D02*
X175856366Y-116550000D01*
X175856366Y-116550000D02*
X175889700Y-116616666D01*
X175889700Y-116616666D02*
X175923033Y-116650000D01*
X175923033Y-116650000D02*
X175989700Y-116683333D01*
X175989700Y-116683333D02*
X176156366Y-116683333D01*
X176156366Y-116683333D02*
X176223033Y-116650000D01*
X176223033Y-116650000D02*
X176256366Y-116616666D01*
X176256366Y-116616666D02*
X176289700Y-116550000D01*
X176289700Y-116550000D02*
X176289700Y-116416666D01*
X176289700Y-116416666D02*
X176256366Y-116350000D01*
X176256366Y-116350000D02*
X176223033Y-116316666D01*
X176223033Y-116316666D02*
X176156366Y-116283333D01*
X172357664Y-85428788D02*
X172404805Y-85523069D01*
X172404805Y-85523069D02*
X172522656Y-85640921D01*
X172522656Y-85640921D02*
X172593367Y-85664491D01*
X172593367Y-85664491D02*
X172640507Y-85664491D01*
X172640507Y-85664491D02*
X172711218Y-85640921D01*
X172711218Y-85640921D02*
X172758358Y-85593780D01*
X172758358Y-85593780D02*
X172781928Y-85523069D01*
X172781928Y-85523069D02*
X172781928Y-85475929D01*
X172781928Y-85475929D02*
X172758358Y-85405218D01*
X172758358Y-85405218D02*
X172687648Y-85287367D01*
X172687648Y-85287367D02*
X172664077Y-85216656D01*
X172664077Y-85216656D02*
X172664077Y-85169516D01*
X172664077Y-85169516D02*
X172687648Y-85098805D01*
X172687648Y-85098805D02*
X172734788Y-85051665D01*
X172734788Y-85051665D02*
X172805499Y-85028095D01*
X172805499Y-85028095D02*
X172852639Y-85028095D01*
X172852639Y-85028095D02*
X172923350Y-85051665D01*
X172923350Y-85051665D02*
X173041201Y-85169516D01*
X173041201Y-85169516D02*
X173088341Y-85263797D01*
X173276903Y-85405219D02*
X172899780Y-86018044D01*
X172899780Y-86018044D02*
X173347614Y-85758772D01*
X173347614Y-85758772D02*
X173088342Y-86206606D01*
X173088342Y-86206606D02*
X173701167Y-85829483D01*
X173842589Y-85970904D02*
X174172572Y-86300887D01*
X174172572Y-86300887D02*
X173465465Y-86583730D01*
X146575055Y-76474489D02*
X146675055Y-76507822D01*
X146675055Y-76507822D02*
X146841722Y-76507822D01*
X146841722Y-76507822D02*
X146908388Y-76474489D01*
X146908388Y-76474489D02*
X146941722Y-76441155D01*
X146941722Y-76441155D02*
X146975055Y-76374489D01*
X146975055Y-76374489D02*
X146975055Y-76307822D01*
X146975055Y-76307822D02*
X146941722Y-76241155D01*
X146941722Y-76241155D02*
X146908388Y-76207822D01*
X146908388Y-76207822D02*
X146841722Y-76174489D01*
X146841722Y-76174489D02*
X146708388Y-76141155D01*
X146708388Y-76141155D02*
X146641722Y-76107822D01*
X146641722Y-76107822D02*
X146608388Y-76074489D01*
X146608388Y-76074489D02*
X146575055Y-76007822D01*
X146575055Y-76007822D02*
X146575055Y-75941155D01*
X146575055Y-75941155D02*
X146608388Y-75874489D01*
X146608388Y-75874489D02*
X146641722Y-75841155D01*
X146641722Y-75841155D02*
X146708388Y-75807822D01*
X146708388Y-75807822D02*
X146875055Y-75807822D01*
X146875055Y-75807822D02*
X146975055Y-75841155D01*
X147208389Y-75807822D02*
X147375055Y-76507822D01*
X147375055Y-76507822D02*
X147508389Y-76007822D01*
X147508389Y-76007822D02*
X147641722Y-76507822D01*
X147641722Y-76507822D02*
X147808389Y-75807822D01*
X148175055Y-76107822D02*
X148108389Y-76074489D01*
X148108389Y-76074489D02*
X148075055Y-76041155D01*
X148075055Y-76041155D02*
X148041722Y-75974489D01*
X148041722Y-75974489D02*
X148041722Y-75941155D01*
X148041722Y-75941155D02*
X148075055Y-75874489D01*
X148075055Y-75874489D02*
X148108389Y-75841155D01*
X148108389Y-75841155D02*
X148175055Y-75807822D01*
X148175055Y-75807822D02*
X148308389Y-75807822D01*
X148308389Y-75807822D02*
X148375055Y-75841155D01*
X148375055Y-75841155D02*
X148408389Y-75874489D01*
X148408389Y-75874489D02*
X148441722Y-75941155D01*
X148441722Y-75941155D02*
X148441722Y-75974489D01*
X148441722Y-75974489D02*
X148408389Y-76041155D01*
X148408389Y-76041155D02*
X148375055Y-76074489D01*
X148375055Y-76074489D02*
X148308389Y-76107822D01*
X148308389Y-76107822D02*
X148175055Y-76107822D01*
X148175055Y-76107822D02*
X148108389Y-76141155D01*
X148108389Y-76141155D02*
X148075055Y-76174489D01*
X148075055Y-76174489D02*
X148041722Y-76241155D01*
X148041722Y-76241155D02*
X148041722Y-76374489D01*
X148041722Y-76374489D02*
X148075055Y-76441155D01*
X148075055Y-76441155D02*
X148108389Y-76474489D01*
X148108389Y-76474489D02*
X148175055Y-76507822D01*
X148175055Y-76507822D02*
X148308389Y-76507822D01*
X148308389Y-76507822D02*
X148375055Y-76474489D01*
X148375055Y-76474489D02*
X148408389Y-76441155D01*
X148408389Y-76441155D02*
X148441722Y-76374489D01*
X148441722Y-76374489D02*
X148441722Y-76241155D01*
X148441722Y-76241155D02*
X148408389Y-76174489D01*
X148408389Y-76174489D02*
X148375055Y-76141155D01*
X148375055Y-76141155D02*
X148308389Y-76107822D01*
X120728137Y-87995436D02*
X120822418Y-87948295D01*
X120822418Y-87948295D02*
X120940270Y-87830444D01*
X120940270Y-87830444D02*
X120963840Y-87759733D01*
X120963840Y-87759733D02*
X120963840Y-87712593D01*
X120963840Y-87712593D02*
X120940270Y-87641882D01*
X120940270Y-87641882D02*
X120893129Y-87594742D01*
X120893129Y-87594742D02*
X120822418Y-87571172D01*
X120822418Y-87571172D02*
X120775278Y-87571172D01*
X120775278Y-87571172D02*
X120704567Y-87594742D01*
X120704567Y-87594742D02*
X120586716Y-87665452D01*
X120586716Y-87665452D02*
X120516005Y-87689023D01*
X120516005Y-87689023D02*
X120468865Y-87689023D01*
X120468865Y-87689023D02*
X120398154Y-87665452D01*
X120398154Y-87665452D02*
X120351014Y-87618312D01*
X120351014Y-87618312D02*
X120327444Y-87547601D01*
X120327444Y-87547601D02*
X120327444Y-87500461D01*
X120327444Y-87500461D02*
X120351014Y-87429750D01*
X120351014Y-87429750D02*
X120468865Y-87311899D01*
X120468865Y-87311899D02*
X120563146Y-87264759D01*
X120704568Y-87076197D02*
X121317393Y-87453320D01*
X121317393Y-87453320D02*
X121058121Y-87005486D01*
X121058121Y-87005486D02*
X121505955Y-87264758D01*
X121505955Y-87264758D02*
X121128832Y-86651933D01*
X121835938Y-86934775D02*
X121930219Y-86840494D01*
X121930219Y-86840494D02*
X121953789Y-86769784D01*
X121953789Y-86769784D02*
X121953789Y-86722643D01*
X121953789Y-86722643D02*
X121930219Y-86604792D01*
X121930219Y-86604792D02*
X121859509Y-86486941D01*
X121859509Y-86486941D02*
X121670947Y-86298379D01*
X121670947Y-86298379D02*
X121600236Y-86274809D01*
X121600236Y-86274809D02*
X121553096Y-86274809D01*
X121553096Y-86274809D02*
X121482385Y-86298379D01*
X121482385Y-86298379D02*
X121388104Y-86392660D01*
X121388104Y-86392660D02*
X121364534Y-86463371D01*
X121364534Y-86463371D02*
X121364534Y-86510511D01*
X121364534Y-86510511D02*
X121388104Y-86581222D01*
X121388104Y-86581222D02*
X121505955Y-86699073D01*
X121505955Y-86699073D02*
X121576666Y-86722643D01*
X121576666Y-86722643D02*
X121623806Y-86722643D01*
X121623806Y-86722643D02*
X121694517Y-86699073D01*
X121694517Y-86699073D02*
X121788798Y-86604792D01*
X121788798Y-86604792D02*
X121812368Y-86534081D01*
X121812368Y-86534081D02*
X121812368Y-86486941D01*
X121812368Y-86486941D02*
X121788798Y-86416230D01*
X120073838Y-111008270D02*
X120107171Y-110908270D01*
X120107171Y-110908270D02*
X120107171Y-110741604D01*
X120107171Y-110741604D02*
X120073838Y-110674937D01*
X120073838Y-110674937D02*
X120040504Y-110641604D01*
X120040504Y-110641604D02*
X119973838Y-110608270D01*
X119973838Y-110608270D02*
X119907171Y-110608270D01*
X119907171Y-110608270D02*
X119840504Y-110641604D01*
X119840504Y-110641604D02*
X119807171Y-110674937D01*
X119807171Y-110674937D02*
X119773838Y-110741604D01*
X119773838Y-110741604D02*
X119740504Y-110874937D01*
X119740504Y-110874937D02*
X119707171Y-110941604D01*
X119707171Y-110941604D02*
X119673838Y-110974937D01*
X119673838Y-110974937D02*
X119607171Y-111008270D01*
X119607171Y-111008270D02*
X119540504Y-111008270D01*
X119540504Y-111008270D02*
X119473838Y-110974937D01*
X119473838Y-110974937D02*
X119440504Y-110941604D01*
X119440504Y-110941604D02*
X119407171Y-110874937D01*
X119407171Y-110874937D02*
X119407171Y-110708270D01*
X119407171Y-110708270D02*
X119440504Y-110608270D01*
X119407171Y-110374937D02*
X120107171Y-110208270D01*
X120107171Y-110208270D02*
X119607171Y-110074937D01*
X119607171Y-110074937D02*
X120107171Y-109941603D01*
X120107171Y-109941603D02*
X119407171Y-109774937D01*
X120107171Y-109141603D02*
X120107171Y-109541603D01*
X120107171Y-109341603D02*
X119407171Y-109341603D01*
X119407171Y-109341603D02*
X119507171Y-109408270D01*
X119507171Y-109408270D02*
X119573838Y-109474937D01*
X119573838Y-109474937D02*
X119607171Y-109541603D01*
X119407171Y-108708270D02*
X119407171Y-108641603D01*
X119407171Y-108641603D02*
X119440504Y-108574936D01*
X119440504Y-108574936D02*
X119473838Y-108541603D01*
X119473838Y-108541603D02*
X119540504Y-108508270D01*
X119540504Y-108508270D02*
X119673838Y-108474936D01*
X119673838Y-108474936D02*
X119840504Y-108474936D01*
X119840504Y-108474936D02*
X119973838Y-108508270D01*
X119973838Y-108508270D02*
X120040504Y-108541603D01*
X120040504Y-108541603D02*
X120073838Y-108574936D01*
X120073838Y-108574936D02*
X120107171Y-108641603D01*
X120107171Y-108641603D02*
X120107171Y-108708270D01*
X120107171Y-108708270D02*
X120073838Y-108774936D01*
X120073838Y-108774936D02*
X120040504Y-108808270D01*
X120040504Y-108808270D02*
X119973838Y-108841603D01*
X119973838Y-108841603D02*
X119840504Y-108874936D01*
X119840504Y-108874936D02*
X119673838Y-108874936D01*
X119673838Y-108874936D02*
X119540504Y-108841603D01*
X119540504Y-108841603D02*
X119473838Y-108808270D01*
X119473838Y-108808270D02*
X119440504Y-108774936D01*
X119440504Y-108774936D02*
X119407171Y-108708270D01*
D11*
X157204597Y-130482700D02*
X157304597Y-130516033D01*
X157304597Y-130516033D02*
X157471264Y-130516033D01*
X157471264Y-130516033D02*
X157537930Y-130482700D01*
X157537930Y-130482700D02*
X157571264Y-130449366D01*
X157571264Y-130449366D02*
X157604597Y-130382700D01*
X157604597Y-130382700D02*
X157604597Y-130316033D01*
X157604597Y-130316033D02*
X157571264Y-130249366D01*
X157571264Y-130249366D02*
X157537930Y-130216033D01*
X157537930Y-130216033D02*
X157471264Y-130182700D01*
X157471264Y-130182700D02*
X157337930Y-130149366D01*
X157337930Y-130149366D02*
X157271264Y-130116033D01*
X157271264Y-130116033D02*
X157237930Y-130082700D01*
X157237930Y-130082700D02*
X157204597Y-130016033D01*
X157204597Y-130016033D02*
X157204597Y-129949366D01*
X157204597Y-129949366D02*
X157237930Y-129882700D01*
X157237930Y-129882700D02*
X157271264Y-129849366D01*
X157271264Y-129849366D02*
X157337930Y-129816033D01*
X157337930Y-129816033D02*
X157504597Y-129816033D01*
X157504597Y-129816033D02*
X157604597Y-129849366D01*
X157837931Y-129816033D02*
X158004597Y-130516033D01*
X158004597Y-130516033D02*
X158137931Y-130016033D01*
X158137931Y-130016033D02*
X158271264Y-130516033D01*
X158271264Y-130516033D02*
X158437931Y-129816033D01*
X159071264Y-130516033D02*
X158671264Y-130516033D01*
X158871264Y-130516033D02*
X158871264Y-129816033D01*
X158871264Y-129816033D02*
X158804597Y-129916033D01*
X158804597Y-129916033D02*
X158737931Y-129982700D01*
X158737931Y-129982700D02*
X158671264Y-130016033D01*
X159737931Y-130516033D02*
X159337931Y-130516033D01*
X159537931Y-130516033D02*
X159537931Y-129816033D01*
X159537931Y-129816033D02*
X159471264Y-129916033D01*
X159471264Y-129916033D02*
X159404598Y-129982700D01*
X159404598Y-129982700D02*
X159337931Y-130016033D01*
X133063684Y-135966666D02*
X133097017Y-135866666D01*
X133097017Y-135866666D02*
X133097017Y-135700000D01*
X133097017Y-135700000D02*
X133063684Y-135633333D01*
X133063684Y-135633333D02*
X133030350Y-135600000D01*
X133030350Y-135600000D02*
X132963684Y-135566666D01*
X132963684Y-135566666D02*
X132897017Y-135566666D01*
X132897017Y-135566666D02*
X132830350Y-135600000D01*
X132830350Y-135600000D02*
X132797017Y-135633333D01*
X132797017Y-135633333D02*
X132763684Y-135700000D01*
X132763684Y-135700000D02*
X132730350Y-135833333D01*
X132730350Y-135833333D02*
X132697017Y-135900000D01*
X132697017Y-135900000D02*
X132663684Y-135933333D01*
X132663684Y-135933333D02*
X132597017Y-135966666D01*
X132597017Y-135966666D02*
X132530350Y-135966666D01*
X132530350Y-135966666D02*
X132463684Y-135933333D01*
X132463684Y-135933333D02*
X132430350Y-135900000D01*
X132430350Y-135900000D02*
X132397017Y-135833333D01*
X132397017Y-135833333D02*
X132397017Y-135666666D01*
X132397017Y-135666666D02*
X132430350Y-135566666D01*
X132397017Y-135333333D02*
X133097017Y-135166666D01*
X133097017Y-135166666D02*
X132597017Y-135033333D01*
X132597017Y-135033333D02*
X133097017Y-134899999D01*
X133097017Y-134899999D02*
X132397017Y-134733333D01*
X133097017Y-134099999D02*
X133097017Y-134499999D01*
X133097017Y-134299999D02*
X132397017Y-134299999D01*
X132397017Y-134299999D02*
X132497017Y-134366666D01*
X132497017Y-134366666D02*
X132563684Y-134433333D01*
X132563684Y-134433333D02*
X132597017Y-134499999D01*
X132463684Y-133833332D02*
X132430350Y-133799999D01*
X132430350Y-133799999D02*
X132397017Y-133733332D01*
X132397017Y-133733332D02*
X132397017Y-133566666D01*
X132397017Y-133566666D02*
X132430350Y-133499999D01*
X132430350Y-133499999D02*
X132463684Y-133466666D01*
X132463684Y-133466666D02*
X132530350Y-133433332D01*
X132530350Y-133433332D02*
X132597017Y-133433332D01*
X132597017Y-133433332D02*
X132697017Y-133466666D01*
X132697017Y-133466666D02*
X133097017Y-133866666D01*
X133097017Y-133866666D02*
X133097017Y-133433332D01*
X167933333Y-95982700D02*
X168033333Y-96016033D01*
X168033333Y-96016033D02*
X168200000Y-96016033D01*
X168200000Y-96016033D02*
X168266666Y-95982700D01*
X168266666Y-95982700D02*
X168300000Y-95949366D01*
X168300000Y-95949366D02*
X168333333Y-95882700D01*
X168333333Y-95882700D02*
X168333333Y-95816033D01*
X168333333Y-95816033D02*
X168300000Y-95749366D01*
X168300000Y-95749366D02*
X168266666Y-95716033D01*
X168266666Y-95716033D02*
X168200000Y-95682700D01*
X168200000Y-95682700D02*
X168066666Y-95649366D01*
X168066666Y-95649366D02*
X168000000Y-95616033D01*
X168000000Y-95616033D02*
X167966666Y-95582700D01*
X167966666Y-95582700D02*
X167933333Y-95516033D01*
X167933333Y-95516033D02*
X167933333Y-95449366D01*
X167933333Y-95449366D02*
X167966666Y-95382700D01*
X167966666Y-95382700D02*
X168000000Y-95349366D01*
X168000000Y-95349366D02*
X168066666Y-95316033D01*
X168066666Y-95316033D02*
X168233333Y-95316033D01*
X168233333Y-95316033D02*
X168333333Y-95349366D01*
X168566667Y-95316033D02*
X168733333Y-96016033D01*
X168733333Y-96016033D02*
X168866667Y-95516033D01*
X168866667Y-95516033D02*
X169000000Y-96016033D01*
X169000000Y-96016033D02*
X169166667Y-95316033D01*
X169800000Y-96016033D02*
X169400000Y-96016033D01*
X169600000Y-96016033D02*
X169600000Y-95316033D01*
X169600000Y-95316033D02*
X169533333Y-95416033D01*
X169533333Y-95416033D02*
X169466667Y-95482700D01*
X169466667Y-95482700D02*
X169400000Y-95516033D01*
X170033334Y-95316033D02*
X170466667Y-95316033D01*
X170466667Y-95316033D02*
X170233334Y-95582700D01*
X170233334Y-95582700D02*
X170333334Y-95582700D01*
X170333334Y-95582700D02*
X170400000Y-95616033D01*
X170400000Y-95616033D02*
X170433334Y-95649366D01*
X170433334Y-95649366D02*
X170466667Y-95716033D01*
X170466667Y-95716033D02*
X170466667Y-95882700D01*
X170466667Y-95882700D02*
X170433334Y-95949366D01*
X170433334Y-95949366D02*
X170400000Y-95982700D01*
X170400000Y-95982700D02*
X170333334Y-96016033D01*
X170333334Y-96016033D02*
X170133334Y-96016033D01*
X170133334Y-96016033D02*
X170066667Y-95982700D01*
X170066667Y-95982700D02*
X170033334Y-95949366D01*
X168033333Y-126432700D02*
X168133333Y-126466033D01*
X168133333Y-126466033D02*
X168300000Y-126466033D01*
X168300000Y-126466033D02*
X168366666Y-126432700D01*
X168366666Y-126432700D02*
X168400000Y-126399366D01*
X168400000Y-126399366D02*
X168433333Y-126332700D01*
X168433333Y-126332700D02*
X168433333Y-126266033D01*
X168433333Y-126266033D02*
X168400000Y-126199366D01*
X168400000Y-126199366D02*
X168366666Y-126166033D01*
X168366666Y-126166033D02*
X168300000Y-126132700D01*
X168300000Y-126132700D02*
X168166666Y-126099366D01*
X168166666Y-126099366D02*
X168100000Y-126066033D01*
X168100000Y-126066033D02*
X168066666Y-126032700D01*
X168066666Y-126032700D02*
X168033333Y-125966033D01*
X168033333Y-125966033D02*
X168033333Y-125899366D01*
X168033333Y-125899366D02*
X168066666Y-125832700D01*
X168066666Y-125832700D02*
X168100000Y-125799366D01*
X168100000Y-125799366D02*
X168166666Y-125766033D01*
X168166666Y-125766033D02*
X168333333Y-125766033D01*
X168333333Y-125766033D02*
X168433333Y-125799366D01*
X168666667Y-125766033D02*
X168833333Y-126466033D01*
X168833333Y-126466033D02*
X168966667Y-125966033D01*
X168966667Y-125966033D02*
X169100000Y-126466033D01*
X169100000Y-126466033D02*
X169266667Y-125766033D01*
X169900000Y-126466033D02*
X169500000Y-126466033D01*
X169700000Y-126466033D02*
X169700000Y-125766033D01*
X169700000Y-125766033D02*
X169633333Y-125866033D01*
X169633333Y-125866033D02*
X169566667Y-125932700D01*
X169566667Y-125932700D02*
X169500000Y-125966033D01*
X170500000Y-125999366D02*
X170500000Y-126466033D01*
X170333334Y-125732700D02*
X170166667Y-126232700D01*
X170166667Y-126232700D02*
X170600000Y-126232700D01*
X132333333Y-76982700D02*
X132433333Y-77016033D01*
X132433333Y-77016033D02*
X132600000Y-77016033D01*
X132600000Y-77016033D02*
X132666666Y-76982700D01*
X132666666Y-76982700D02*
X132700000Y-76949366D01*
X132700000Y-76949366D02*
X132733333Y-76882700D01*
X132733333Y-76882700D02*
X132733333Y-76816033D01*
X132733333Y-76816033D02*
X132700000Y-76749366D01*
X132700000Y-76749366D02*
X132666666Y-76716033D01*
X132666666Y-76716033D02*
X132600000Y-76682700D01*
X132600000Y-76682700D02*
X132466666Y-76649366D01*
X132466666Y-76649366D02*
X132400000Y-76616033D01*
X132400000Y-76616033D02*
X132366666Y-76582700D01*
X132366666Y-76582700D02*
X132333333Y-76516033D01*
X132333333Y-76516033D02*
X132333333Y-76449366D01*
X132333333Y-76449366D02*
X132366666Y-76382700D01*
X132366666Y-76382700D02*
X132400000Y-76349366D01*
X132400000Y-76349366D02*
X132466666Y-76316033D01*
X132466666Y-76316033D02*
X132633333Y-76316033D01*
X132633333Y-76316033D02*
X132733333Y-76349366D01*
X132966667Y-76316033D02*
X133133333Y-77016033D01*
X133133333Y-77016033D02*
X133266667Y-76516033D01*
X133266667Y-76516033D02*
X133400000Y-77016033D01*
X133400000Y-77016033D02*
X133566667Y-76316033D01*
X134200000Y-77016033D02*
X133800000Y-77016033D01*
X134000000Y-77016033D02*
X134000000Y-76316033D01*
X134000000Y-76316033D02*
X133933333Y-76416033D01*
X133933333Y-76416033D02*
X133866667Y-76482700D01*
X133866667Y-76482700D02*
X133800000Y-76516033D01*
X134833334Y-76316033D02*
X134500000Y-76316033D01*
X134500000Y-76316033D02*
X134466667Y-76649366D01*
X134466667Y-76649366D02*
X134500000Y-76616033D01*
X134500000Y-76616033D02*
X134566667Y-76582700D01*
X134566667Y-76582700D02*
X134733334Y-76582700D01*
X134733334Y-76582700D02*
X134800000Y-76616033D01*
X134800000Y-76616033D02*
X134833334Y-76649366D01*
X134833334Y-76649366D02*
X134866667Y-76716033D01*
X134866667Y-76716033D02*
X134866667Y-76882700D01*
X134866667Y-76882700D02*
X134833334Y-76949366D01*
X134833334Y-76949366D02*
X134800000Y-76982700D01*
X134800000Y-76982700D02*
X134733334Y-77016033D01*
X134733334Y-77016033D02*
X134566667Y-77016033D01*
X134566667Y-77016033D02*
X134500000Y-76982700D01*
X134500000Y-76982700D02*
X134466667Y-76949366D01*
X163317300Y-79233333D02*
X163283966Y-79333333D01*
X163283966Y-79333333D02*
X163283966Y-79500000D01*
X163283966Y-79500000D02*
X163317300Y-79566666D01*
X163317300Y-79566666D02*
X163350633Y-79600000D01*
X163350633Y-79600000D02*
X163417300Y-79633333D01*
X163417300Y-79633333D02*
X163483966Y-79633333D01*
X163483966Y-79633333D02*
X163550633Y-79600000D01*
X163550633Y-79600000D02*
X163583966Y-79566666D01*
X163583966Y-79566666D02*
X163617300Y-79500000D01*
X163617300Y-79500000D02*
X163650633Y-79366666D01*
X163650633Y-79366666D02*
X163683966Y-79300000D01*
X163683966Y-79300000D02*
X163717300Y-79266666D01*
X163717300Y-79266666D02*
X163783966Y-79233333D01*
X163783966Y-79233333D02*
X163850633Y-79233333D01*
X163850633Y-79233333D02*
X163917300Y-79266666D01*
X163917300Y-79266666D02*
X163950633Y-79300000D01*
X163950633Y-79300000D02*
X163983966Y-79366666D01*
X163983966Y-79366666D02*
X163983966Y-79533333D01*
X163983966Y-79533333D02*
X163950633Y-79633333D01*
X163983966Y-79866667D02*
X163283966Y-80033333D01*
X163283966Y-80033333D02*
X163783966Y-80166667D01*
X163783966Y-80166667D02*
X163283966Y-80300000D01*
X163283966Y-80300000D02*
X163983966Y-80466667D01*
X163283966Y-81100000D02*
X163283966Y-80700000D01*
X163283966Y-80900000D02*
X163983966Y-80900000D01*
X163983966Y-80900000D02*
X163883966Y-80833333D01*
X163883966Y-80833333D02*
X163817300Y-80766667D01*
X163817300Y-80766667D02*
X163783966Y-80700000D01*
X163983966Y-81700000D02*
X163983966Y-81566667D01*
X163983966Y-81566667D02*
X163950633Y-81500000D01*
X163950633Y-81500000D02*
X163917300Y-81466667D01*
X163917300Y-81466667D02*
X163817300Y-81400000D01*
X163817300Y-81400000D02*
X163683966Y-81366667D01*
X163683966Y-81366667D02*
X163417300Y-81366667D01*
X163417300Y-81366667D02*
X163350633Y-81400000D01*
X163350633Y-81400000D02*
X163317300Y-81433334D01*
X163317300Y-81433334D02*
X163283966Y-81500000D01*
X163283966Y-81500000D02*
X163283966Y-81633334D01*
X163283966Y-81633334D02*
X163317300Y-81700000D01*
X163317300Y-81700000D02*
X163350633Y-81733334D01*
X163350633Y-81733334D02*
X163417300Y-81766667D01*
X163417300Y-81766667D02*
X163583966Y-81766667D01*
X163583966Y-81766667D02*
X163650633Y-81733334D01*
X163650633Y-81733334D02*
X163683966Y-81700000D01*
X163683966Y-81700000D02*
X163717300Y-81633334D01*
X163717300Y-81633334D02*
X163717300Y-81500000D01*
X163717300Y-81500000D02*
X163683966Y-81433334D01*
X163683966Y-81433334D02*
X163650633Y-81400000D01*
X163650633Y-81400000D02*
X163583966Y-81366667D01*
X122433333Y-126232700D02*
X122533333Y-126266033D01*
X122533333Y-126266033D02*
X122700000Y-126266033D01*
X122700000Y-126266033D02*
X122766666Y-126232700D01*
X122766666Y-126232700D02*
X122800000Y-126199366D01*
X122800000Y-126199366D02*
X122833333Y-126132700D01*
X122833333Y-126132700D02*
X122833333Y-126066033D01*
X122833333Y-126066033D02*
X122800000Y-125999366D01*
X122800000Y-125999366D02*
X122766666Y-125966033D01*
X122766666Y-125966033D02*
X122700000Y-125932700D01*
X122700000Y-125932700D02*
X122566666Y-125899366D01*
X122566666Y-125899366D02*
X122500000Y-125866033D01*
X122500000Y-125866033D02*
X122466666Y-125832700D01*
X122466666Y-125832700D02*
X122433333Y-125766033D01*
X122433333Y-125766033D02*
X122433333Y-125699366D01*
X122433333Y-125699366D02*
X122466666Y-125632700D01*
X122466666Y-125632700D02*
X122500000Y-125599366D01*
X122500000Y-125599366D02*
X122566666Y-125566033D01*
X122566666Y-125566033D02*
X122733333Y-125566033D01*
X122733333Y-125566033D02*
X122833333Y-125599366D01*
X123066667Y-125566033D02*
X123233333Y-126266033D01*
X123233333Y-126266033D02*
X123366667Y-125766033D01*
X123366667Y-125766033D02*
X123500000Y-126266033D01*
X123500000Y-126266033D02*
X123666667Y-125566033D01*
X124300000Y-126266033D02*
X123900000Y-126266033D01*
X124100000Y-126266033D02*
X124100000Y-125566033D01*
X124100000Y-125566033D02*
X124033333Y-125666033D01*
X124033333Y-125666033D02*
X123966667Y-125732700D01*
X123966667Y-125732700D02*
X123900000Y-125766033D01*
X124533334Y-125566033D02*
X125000000Y-125566033D01*
X125000000Y-125566033D02*
X124700000Y-126266033D01*
X122833333Y-97382700D02*
X122933333Y-97416033D01*
X122933333Y-97416033D02*
X123100000Y-97416033D01*
X123100000Y-97416033D02*
X123166666Y-97382700D01*
X123166666Y-97382700D02*
X123200000Y-97349366D01*
X123200000Y-97349366D02*
X123233333Y-97282700D01*
X123233333Y-97282700D02*
X123233333Y-97216033D01*
X123233333Y-97216033D02*
X123200000Y-97149366D01*
X123200000Y-97149366D02*
X123166666Y-97116033D01*
X123166666Y-97116033D02*
X123100000Y-97082700D01*
X123100000Y-97082700D02*
X122966666Y-97049366D01*
X122966666Y-97049366D02*
X122900000Y-97016033D01*
X122900000Y-97016033D02*
X122866666Y-96982700D01*
X122866666Y-96982700D02*
X122833333Y-96916033D01*
X122833333Y-96916033D02*
X122833333Y-96849366D01*
X122833333Y-96849366D02*
X122866666Y-96782700D01*
X122866666Y-96782700D02*
X122900000Y-96749366D01*
X122900000Y-96749366D02*
X122966666Y-96716033D01*
X122966666Y-96716033D02*
X123133333Y-96716033D01*
X123133333Y-96716033D02*
X123233333Y-96749366D01*
X123466667Y-96716033D02*
X123633333Y-97416033D01*
X123633333Y-97416033D02*
X123766667Y-96916033D01*
X123766667Y-96916033D02*
X123900000Y-97416033D01*
X123900000Y-97416033D02*
X124066667Y-96716033D01*
X124700000Y-97416033D02*
X124300000Y-97416033D01*
X124500000Y-97416033D02*
X124500000Y-96716033D01*
X124500000Y-96716033D02*
X124433333Y-96816033D01*
X124433333Y-96816033D02*
X124366667Y-96882700D01*
X124366667Y-96882700D02*
X124300000Y-96916033D01*
X125100000Y-97016033D02*
X125033334Y-96982700D01*
X125033334Y-96982700D02*
X125000000Y-96949366D01*
X125000000Y-96949366D02*
X124966667Y-96882700D01*
X124966667Y-96882700D02*
X124966667Y-96849366D01*
X124966667Y-96849366D02*
X125000000Y-96782700D01*
X125000000Y-96782700D02*
X125033334Y-96749366D01*
X125033334Y-96749366D02*
X125100000Y-96716033D01*
X125100000Y-96716033D02*
X125233334Y-96716033D01*
X125233334Y-96716033D02*
X125300000Y-96749366D01*
X125300000Y-96749366D02*
X125333334Y-96782700D01*
X125333334Y-96782700D02*
X125366667Y-96849366D01*
X125366667Y-96849366D02*
X125366667Y-96882700D01*
X125366667Y-96882700D02*
X125333334Y-96949366D01*
X125333334Y-96949366D02*
X125300000Y-96982700D01*
X125300000Y-96982700D02*
X125233334Y-97016033D01*
X125233334Y-97016033D02*
X125100000Y-97016033D01*
X125100000Y-97016033D02*
X125033334Y-97049366D01*
X125033334Y-97049366D02*
X125000000Y-97082700D01*
X125000000Y-97082700D02*
X124966667Y-97149366D01*
X124966667Y-97149366D02*
X124966667Y-97282700D01*
X124966667Y-97282700D02*
X125000000Y-97349366D01*
X125000000Y-97349366D02*
X125033334Y-97382700D01*
X125033334Y-97382700D02*
X125100000Y-97416033D01*
X125100000Y-97416033D02*
X125233334Y-97416033D01*
X125233334Y-97416033D02*
X125300000Y-97382700D01*
X125300000Y-97382700D02*
X125333334Y-97349366D01*
X125333334Y-97349366D02*
X125366667Y-97282700D01*
X125366667Y-97282700D02*
X125366667Y-97149366D01*
X125366667Y-97149366D02*
X125333334Y-97082700D01*
X125333334Y-97082700D02*
X125300000Y-97049366D01*
X125300000Y-97049366D02*
X125233334Y-97016033D01*
D12*
%TO.C,G\u002A\u002A\u002A*%
G36*
X169410317Y-65034823D02*
G01*
X169533333Y-65041382D01*
X169650486Y-65053832D01*
X169769941Y-65073214D01*
X169899865Y-65100569D01*
X170009061Y-65126937D01*
X170122013Y-65156805D01*
X170232757Y-65189381D01*
X170344908Y-65226024D01*
X170462082Y-65268093D01*
X170587894Y-65316948D01*
X170725959Y-65373949D01*
X170879892Y-65440455D01*
X171053310Y-65517826D01*
X171077096Y-65528582D01*
X171317927Y-65626066D01*
X171560336Y-65700443D01*
X171808926Y-65752760D01*
X172068297Y-65784062D01*
X172242998Y-65793578D01*
X172552017Y-65790263D01*
X172859688Y-65761182D01*
X173166598Y-65706192D01*
X173473334Y-65625150D01*
X173780485Y-65517911D01*
X174088638Y-65384334D01*
X174249999Y-65304142D01*
X174317129Y-65269833D01*
X174375772Y-65240817D01*
X174422008Y-65218956D01*
X174451916Y-65206112D01*
X174461549Y-65203652D01*
X174457568Y-65216562D01*
X174443454Y-65248952D01*
X174421273Y-65296636D01*
X174393092Y-65355428D01*
X174360976Y-65421143D01*
X174326993Y-65489595D01*
X174293209Y-65556599D01*
X174261690Y-65617970D01*
X174234504Y-65669521D01*
X174213716Y-65707068D01*
X174209316Y-65714515D01*
X174194949Y-65739356D01*
X174187230Y-65758659D01*
X174188713Y-65773123D01*
X174201951Y-65783446D01*
X174229498Y-65790326D01*
X174273908Y-65794460D01*
X174337734Y-65796549D01*
X174423530Y-65797289D01*
X174512379Y-65797379D01*
X174608213Y-65797874D01*
X174689727Y-65799285D01*
X174754142Y-65801503D01*
X174798678Y-65804420D01*
X174820554Y-65807924D01*
X174822309Y-65809565D01*
X174809875Y-65824766D01*
X174779844Y-65854181D01*
X174735238Y-65895177D01*
X174679078Y-65945123D01*
X174614386Y-66001387D01*
X174544183Y-66061337D01*
X174471490Y-66122342D01*
X174399330Y-66181771D01*
X174340413Y-66229284D01*
X174066483Y-66438807D01*
X173799301Y-66625361D01*
X173539365Y-66788679D01*
X173287176Y-66928491D01*
X173043232Y-67044527D01*
X172808035Y-67136520D01*
X172582083Y-67204199D01*
X172490766Y-67225163D01*
X172395156Y-67239780D01*
X172277436Y-67249091D01*
X172141558Y-67253244D01*
X171991472Y-67252388D01*
X171831129Y-67246671D01*
X171664478Y-67236243D01*
X171495472Y-67221252D01*
X171328059Y-67201847D01*
X171166192Y-67178176D01*
X171143658Y-67174440D01*
X171033344Y-67155105D01*
X170927958Y-67134889D01*
X170823614Y-67112821D01*
X170716426Y-67087930D01*
X170602507Y-67059246D01*
X170477971Y-67025800D01*
X170338930Y-66986621D01*
X170181499Y-66940738D01*
X170045806Y-66900382D01*
X169787771Y-66824534D01*
X169553490Y-66758632D01*
X169540329Y-66755135D01*
X170830817Y-66755135D01*
X170842090Y-66783745D01*
X170870189Y-66800010D01*
X170906534Y-66799547D01*
X170913398Y-66797308D01*
X170950781Y-66773590D01*
X170992966Y-66732109D01*
X171034345Y-66679611D01*
X171069313Y-66622837D01*
X171083665Y-66592514D01*
X171104246Y-66548114D01*
X171121870Y-66524414D01*
X171140516Y-66516408D01*
X171144254Y-66516247D01*
X171156517Y-66518236D01*
X171166269Y-66526974D01*
X171174999Y-66546616D01*
X171184192Y-66581319D01*
X171195336Y-66635238D01*
X171204969Y-66685980D01*
X171220502Y-66763641D01*
X171234249Y-66819121D01*
X171247517Y-66856683D01*
X171261610Y-66880591D01*
X171266123Y-66885665D01*
X171304764Y-66910439D01*
X171345293Y-66912754D01*
X171380334Y-66892238D01*
X171381059Y-66891448D01*
X171399965Y-66860121D01*
X171410404Y-66828214D01*
X171410510Y-66791726D01*
X171402343Y-66737963D01*
X171387745Y-66674276D01*
X171368557Y-66608018D01*
X171346624Y-66546541D01*
X171330836Y-66510720D01*
X171323425Y-66495656D01*
X171870911Y-66495656D01*
X171872626Y-66576152D01*
X171886458Y-66689690D01*
X171913758Y-66783738D01*
X171953899Y-66856996D01*
X172006253Y-66908167D01*
X172042243Y-66927323D01*
X172097359Y-66939441D01*
X172160197Y-66939207D01*
X172211109Y-66928043D01*
X172261666Y-66899898D01*
X172295809Y-66862426D01*
X172308489Y-66821186D01*
X172308490Y-66820772D01*
X172300433Y-66785932D01*
X172275109Y-66768942D01*
X172230791Y-66768976D01*
X172209106Y-66773166D01*
X172149178Y-66780969D01*
X172104574Y-66770823D01*
X172068950Y-66740249D01*
X172048975Y-66710607D01*
X172016841Y-66638399D01*
X171998915Y-66559940D01*
X171995258Y-66481712D01*
X172005928Y-66410198D01*
X172030986Y-66351879D01*
X172045512Y-66333202D01*
X172078067Y-66308705D01*
X172113498Y-66306236D01*
X172158455Y-66325343D01*
X172158733Y-66325502D01*
X172199274Y-66341010D01*
X172226914Y-66336766D01*
X172240543Y-66316885D01*
X172239053Y-66285488D01*
X172221335Y-66246690D01*
X172208532Y-66230961D01*
X172376840Y-66230961D01*
X172379044Y-66263312D01*
X172383233Y-66307453D01*
X172389745Y-66367431D01*
X172397953Y-66438279D01*
X172407231Y-66515030D01*
X172416952Y-66592715D01*
X172426488Y-66666369D01*
X172435213Y-66731024D01*
X172442500Y-66781712D01*
X172447723Y-66813466D01*
X172449399Y-66820800D01*
X172465709Y-66830775D01*
X172502533Y-66834859D01*
X172554521Y-66833478D01*
X172616322Y-66827055D01*
X172682585Y-66816016D01*
X172747959Y-66800784D01*
X172765791Y-66795702D01*
X172822690Y-66776978D01*
X172858648Y-66760217D01*
X172878923Y-66742631D01*
X172884845Y-66732607D01*
X172890713Y-66702884D01*
X172874840Y-66685461D01*
X172836285Y-66679818D01*
X172794392Y-66682706D01*
X172742057Y-66688511D01*
X172680617Y-66694776D01*
X172645770Y-66698085D01*
X172563710Y-66705576D01*
X172556889Y-66634208D01*
X172552606Y-66589587D01*
X172546697Y-66528276D01*
X172540108Y-66460087D01*
X172536425Y-66422052D01*
X172524186Y-66326805D01*
X172507735Y-66245728D01*
X172488051Y-66182220D01*
X172466111Y-66139675D01*
X172457273Y-66131031D01*
X172803234Y-66131031D01*
X172813743Y-66197840D01*
X172821659Y-66230562D01*
X172853122Y-66345488D01*
X172882238Y-66437062D01*
X172910539Y-66508269D01*
X172939556Y-66562097D01*
X172970822Y-66601533D01*
X173005869Y-66629566D01*
X173033767Y-66644131D01*
X173089445Y-66658925D01*
X173150115Y-66660684D01*
X173202254Y-66649103D01*
X173204768Y-66648000D01*
X173238950Y-66620132D01*
X173269499Y-66573095D01*
X173292437Y-66514339D01*
X173302524Y-66464851D01*
X173303491Y-66418177D01*
X173298872Y-66354004D01*
X173289888Y-66280573D01*
X173277757Y-66206125D01*
X173263698Y-66138903D01*
X173248931Y-66087146D01*
X173245204Y-66077426D01*
X173217450Y-66025644D01*
X173187234Y-65993977D01*
X173157555Y-65983831D01*
X173131412Y-65996613D01*
X173117836Y-66017661D01*
X173110718Y-66042286D01*
X173111089Y-66074063D01*
X173119398Y-66120381D01*
X173125730Y-66147457D01*
X173137837Y-66208239D01*
X173148542Y-66281421D01*
X173155817Y-66352787D01*
X173156584Y-66363982D01*
X173159200Y-66438468D01*
X173155389Y-66490106D01*
X173143915Y-66522164D01*
X173123540Y-66537906D01*
X173093027Y-66540601D01*
X173089800Y-66540321D01*
X173068354Y-66536029D01*
X173050576Y-66525525D01*
X173034856Y-66505430D01*
X173019583Y-66472363D01*
X173003148Y-66422945D01*
X172983938Y-66353798D01*
X172964136Y-66276624D01*
X172941483Y-66191423D01*
X172921804Y-66129392D01*
X172903613Y-66087453D01*
X172885425Y-66062530D01*
X172865753Y-66051543D01*
X172854896Y-66050314D01*
X172823533Y-66058779D01*
X172806405Y-66085181D01*
X172803234Y-66131031D01*
X172457273Y-66131031D01*
X172450764Y-66124665D01*
X172430209Y-66118483D01*
X172410426Y-66130915D01*
X172399311Y-66143500D01*
X172384308Y-66166137D01*
X172377310Y-66192374D01*
X172376840Y-66230961D01*
X172208532Y-66230961D01*
X172190245Y-66208496D01*
X172138474Y-66169257D01*
X172086576Y-66156299D01*
X172032280Y-66169364D01*
X172001263Y-66187082D01*
X171944948Y-66238153D01*
X171904834Y-66305445D01*
X171880347Y-66390699D01*
X171870911Y-66495656D01*
X171323425Y-66495656D01*
X171298645Y-66445287D01*
X171375425Y-66357628D01*
X171425550Y-66299279D01*
X171459971Y-66255823D01*
X171481422Y-66222947D01*
X171492637Y-66196338D01*
X171496352Y-66171683D01*
X171496436Y-66166745D01*
X171488816Y-66132196D01*
X171466182Y-66119278D01*
X171428871Y-66127870D01*
X171377221Y-66157851D01*
X171311570Y-66209098D01*
X171266042Y-66249596D01*
X171227535Y-66283536D01*
X171198731Y-66305807D01*
X171183159Y-66313876D01*
X171181950Y-66309905D01*
X171187010Y-66285589D01*
X171192385Y-66241898D01*
X171197278Y-66186056D01*
X171199632Y-66150019D01*
X171202784Y-66089095D01*
X171203215Y-66048273D01*
X171199873Y-66021081D01*
X171191704Y-66001050D01*
X171177655Y-65981708D01*
X171170924Y-65973630D01*
X171143692Y-65949132D01*
X173352161Y-65949132D01*
X173355763Y-65980614D01*
X173366241Y-66029685D01*
X173384131Y-66098823D01*
X173409969Y-66190506D01*
X173412430Y-66199010D01*
X173434808Y-66276225D01*
X173454767Y-66345158D01*
X173471071Y-66401528D01*
X173482479Y-66441052D01*
X173487755Y-66459447D01*
X173487817Y-66459669D01*
X173504353Y-66472998D01*
X173540278Y-66475013D01*
X173591033Y-66466036D01*
X173646617Y-66448454D01*
X173707459Y-66418647D01*
X173762753Y-66378932D01*
X173806192Y-66334822D01*
X173831470Y-66291830D01*
X173833489Y-66285099D01*
X173834976Y-66234998D01*
X173819882Y-66179220D01*
X173792383Y-66126045D01*
X173756655Y-66083756D01*
X173720892Y-66061838D01*
X173709430Y-66051980D01*
X173715863Y-66030750D01*
X173717692Y-66027256D01*
X173731314Y-65980616D01*
X173731881Y-65925218D01*
X173720228Y-65873333D01*
X173705323Y-65845767D01*
X173669138Y-65817566D01*
X173619972Y-65809602D01*
X173556541Y-65821957D01*
X173477561Y-65854710D01*
X173465806Y-65860613D01*
X173418580Y-65886555D01*
X173380224Y-65910956D01*
X173357450Y-65929447D01*
X173354902Y-65932762D01*
X173352161Y-65949132D01*
X171143692Y-65949132D01*
X171136104Y-65942306D01*
X171103266Y-65930505D01*
X171102844Y-65930503D01*
X171075870Y-65936278D01*
X171055191Y-65955629D01*
X171039632Y-65991595D01*
X171028017Y-66047214D01*
X171019171Y-66125524D01*
X171016996Y-66152385D01*
X171003042Y-66276672D01*
X170979679Y-66386348D01*
X170943859Y-66492390D01*
X170892532Y-66605774D01*
X170889172Y-66612495D01*
X170863946Y-66665347D01*
X170844207Y-66711676D01*
X170832675Y-66744829D01*
X170830817Y-66755135D01*
X169540329Y-66755135D01*
X169342103Y-66702463D01*
X169152751Y-66655816D01*
X168984576Y-66618481D01*
X168836720Y-66590247D01*
X168708322Y-66570902D01*
X168701187Y-66570015D01*
X168630269Y-66563699D01*
X168543964Y-66559616D01*
X168450445Y-66557810D01*
X168357885Y-66558325D01*
X168274458Y-66561204D01*
X168208337Y-66566493D01*
X168201624Y-66567334D01*
X168162047Y-66573671D01*
X168140508Y-66583903D01*
X168128633Y-66605284D01*
X168119723Y-66638294D01*
X168104983Y-66710503D01*
X168090767Y-66803355D01*
X168077732Y-66910865D01*
X168066531Y-67027051D01*
X168057819Y-67145932D01*
X168052594Y-67251755D01*
X168044474Y-67474737D01*
X167944941Y-67474737D01*
X167845410Y-67474737D01*
X167854517Y-67364910D01*
X167879581Y-67140476D01*
X167917631Y-66906242D01*
X167966902Y-66670230D01*
X168025633Y-66440463D01*
X168092060Y-66224963D01*
X168126103Y-66129103D01*
X168126153Y-66128973D01*
X168796210Y-66128973D01*
X168798734Y-66178788D01*
X168815810Y-66209646D01*
X168847553Y-66222733D01*
X168859086Y-66223375D01*
X168912019Y-66211204D01*
X168962485Y-66174229D01*
X169011266Y-66111750D01*
X169040305Y-66061242D01*
X169065321Y-66014185D01*
X169086121Y-65976552D01*
X169099360Y-65954338D01*
X169101705Y-65951194D01*
X169116815Y-65952032D01*
X169149162Y-65961117D01*
X169191799Y-65975780D01*
X169237778Y-65993349D01*
X169280153Y-66011155D01*
X169311978Y-66026526D01*
X169326304Y-66036793D01*
X169326519Y-66037619D01*
X169323988Y-66054088D01*
X169317178Y-66090468D01*
X169307264Y-66140609D01*
X169300206Y-66175268D01*
X169286646Y-66251470D01*
X169282677Y-66306390D01*
X169288973Y-66343837D01*
X169306213Y-66367617D01*
X169335070Y-66381538D01*
X169336931Y-66382072D01*
X169339596Y-66381300D01*
X169622333Y-66381300D01*
X169622372Y-66381780D01*
X169634823Y-66418536D01*
X169659287Y-66433956D01*
X169692887Y-66428775D01*
X169732746Y-66403729D01*
X169775988Y-66359555D01*
X169792452Y-66338259D01*
X169839046Y-66274326D01*
X169916643Y-66280964D01*
X169959433Y-66285572D01*
X169990285Y-66290663D01*
X170000789Y-66294150D01*
X170000462Y-66309156D01*
X169993515Y-66342637D01*
X169981412Y-66387701D01*
X169979769Y-66393267D01*
X169966042Y-66442817D01*
X169956167Y-66485053D01*
X169952207Y-66511119D01*
X169952201Y-66511692D01*
X169962073Y-66546926D01*
X169988036Y-66565514D01*
X170024607Y-66566413D01*
X170066303Y-66548579D01*
X170082576Y-66536485D01*
X170111973Y-66503718D01*
X170137588Y-66456750D01*
X170146405Y-66431929D01*
X170340141Y-66431929D01*
X170355590Y-66528910D01*
X170359669Y-66543570D01*
X170390383Y-66612439D01*
X170434889Y-66666909D01*
X170488825Y-66704722D01*
X170547831Y-66723618D01*
X170607548Y-66721337D01*
X170659116Y-66698762D01*
X170690010Y-66673060D01*
X170702689Y-66645307D01*
X170704350Y-66622216D01*
X170701338Y-66590224D01*
X170688526Y-66575998D01*
X170671069Y-66572082D01*
X170606069Y-66557875D01*
X170559018Y-66534364D01*
X170539709Y-66514124D01*
X170520800Y-66463527D01*
X170513904Y-66396132D01*
X170519078Y-66318927D01*
X170536375Y-66238902D01*
X170537515Y-66235095D01*
X170571715Y-66136965D01*
X170607696Y-66060657D01*
X170644621Y-66007084D01*
X170681648Y-65977155D01*
X170717937Y-65971783D01*
X170752650Y-65991877D01*
X170757292Y-65996725D01*
X170794458Y-66025357D01*
X170828958Y-66031104D01*
X170857477Y-66017698D01*
X170876696Y-65988871D01*
X170883299Y-65948354D01*
X170873969Y-65899878D01*
X170863873Y-65876817D01*
X170828259Y-65835055D01*
X170776051Y-65808106D01*
X170713554Y-65797205D01*
X170647074Y-65803586D01*
X170591952Y-65823617D01*
X170528064Y-65869943D01*
X170470945Y-65937655D01*
X170422117Y-66022037D01*
X170383100Y-66118372D01*
X170355418Y-66221943D01*
X170340591Y-66328034D01*
X170340141Y-66431929D01*
X170146405Y-66431929D01*
X170160274Y-66392885D01*
X170180881Y-66309429D01*
X170200261Y-66203686D01*
X170211831Y-66127175D01*
X170226757Y-65994242D01*
X170231742Y-65877948D01*
X170227166Y-65779501D01*
X170213408Y-65700108D01*
X170190845Y-65640975D01*
X170159858Y-65603308D01*
X170120825Y-65588316D01*
X170074124Y-65597205D01*
X170049500Y-65610059D01*
X170015033Y-65639387D01*
X169983892Y-65678500D01*
X169978877Y-65686879D01*
X169901155Y-65827575D01*
X169831357Y-65955893D01*
X169770256Y-66070323D01*
X169718627Y-66169355D01*
X169677246Y-66251479D01*
X169646887Y-66315185D01*
X169628324Y-66358962D01*
X169622333Y-66381300D01*
X169339596Y-66381300D01*
X169350386Y-66378175D01*
X169378678Y-66367224D01*
X169384874Y-66364661D01*
X169424293Y-66340137D01*
X169456744Y-66307320D01*
X169473489Y-66275623D01*
X169494739Y-66223058D01*
X169519170Y-66154215D01*
X169545456Y-66073687D01*
X169572273Y-65986065D01*
X169598296Y-65895940D01*
X169622199Y-65807903D01*
X169642658Y-65726546D01*
X169658348Y-65656461D01*
X169667944Y-65602238D01*
X169670122Y-65568469D01*
X169670080Y-65568028D01*
X169652951Y-65523750D01*
X169629485Y-65499977D01*
X169603546Y-65483022D01*
X169582738Y-65480506D01*
X169553813Y-65491549D01*
X169547529Y-65494523D01*
X169525675Y-65507808D01*
X169505664Y-65528007D01*
X169484267Y-65559765D01*
X169458252Y-65607722D01*
X169432311Y-65660117D01*
X169405081Y-65716114D01*
X169382314Y-65762592D01*
X169366372Y-65794755D01*
X169359616Y-65807807D01*
X169359597Y-65807831D01*
X169346473Y-65805894D01*
X169316617Y-65796452D01*
X169277793Y-65782430D01*
X169237767Y-65766757D01*
X169204301Y-65752360D01*
X169185159Y-65742165D01*
X169184913Y-65741975D01*
X169176405Y-65722060D01*
X169180408Y-65683039D01*
X169181985Y-65675700D01*
X169187573Y-65616883D01*
X169181663Y-65552199D01*
X169166279Y-65488907D01*
X169143445Y-65434270D01*
X169115187Y-65395547D01*
X169100947Y-65385090D01*
X169055578Y-65372212D01*
X169016464Y-65384626D01*
X168984531Y-65421534D01*
X168960707Y-65482143D01*
X168953984Y-65511163D01*
X168929779Y-65621937D01*
X168899063Y-65744900D01*
X168865129Y-65867490D01*
X168834359Y-65967725D01*
X168808123Y-66059014D01*
X168796210Y-66128973D01*
X168126153Y-66128973D01*
X168169752Y-66015978D01*
X168219164Y-65894773D01*
X168272443Y-65769622D01*
X168327692Y-65644660D01*
X168383016Y-65524023D01*
X168436519Y-65411845D01*
X168486306Y-65312262D01*
X168530482Y-65229409D01*
X168566540Y-65168369D01*
X168598573Y-65126639D01*
X168626105Y-65106977D01*
X168647078Y-65110411D01*
X168655635Y-65123926D01*
X168664120Y-65133647D01*
X168682339Y-65132189D01*
X168716788Y-65118841D01*
X168721633Y-65116711D01*
X168806855Y-65084868D01*
X168901849Y-65061213D01*
X169010763Y-65045119D01*
X169137739Y-65035957D01*
X169273270Y-65033114D01*
X169410317Y-65034823D01*
G37*
G36*
X170093323Y-65836196D02*
G01*
X170097315Y-65868584D01*
X170098296Y-65914885D01*
X170096149Y-65968816D01*
X170090760Y-66024094D01*
X170090171Y-66028487D01*
X170083997Y-66062144D01*
X170073186Y-66081607D01*
X170052242Y-66089061D01*
X170015674Y-66086692D01*
X169965513Y-66078088D01*
X169933948Y-66067757D01*
X169922346Y-66053862D01*
X169922520Y-66052401D01*
X169931850Y-66032734D01*
X169952507Y-65999379D01*
X169980430Y-65957996D01*
X170011556Y-65914247D01*
X170041822Y-65873793D01*
X170067164Y-65842295D01*
X170083521Y-65825413D01*
X170086433Y-65824004D01*
X170093323Y-65836196D01*
G37*
G36*
X173706245Y-66181757D02*
G01*
X173728110Y-66208777D01*
X173737409Y-66247479D01*
X173723379Y-66282772D01*
X173684718Y-66316974D01*
X173658462Y-66332891D01*
X173614987Y-66356189D01*
X173588896Y-66366905D01*
X173574785Y-66366230D01*
X173567253Y-66355355D01*
X173566446Y-66353170D01*
X173560135Y-66330679D01*
X173551149Y-66293571D01*
X173547319Y-66276624D01*
X173541918Y-66231572D01*
X173552568Y-66202769D01*
X173583104Y-66184942D01*
X173620742Y-66175719D01*
X173672206Y-66171129D01*
X173706245Y-66181757D01*
G37*
G36*
X173627896Y-65951290D02*
G01*
X173637435Y-65982164D01*
X173634397Y-66003177D01*
X173620168Y-66026875D01*
X173592453Y-66055882D01*
X173559710Y-66082869D01*
X173530391Y-66100504D01*
X173518600Y-66103563D01*
X173509274Y-66092342D01*
X173494197Y-66063444D01*
X173482272Y-66036475D01*
X173454392Y-65969386D01*
X173490482Y-65955432D01*
X173552571Y-65937311D01*
X173598992Y-65936135D01*
X173627896Y-65951290D01*
G37*
D13*
%TO.C,AE1*%
X153260000Y-63470000D02*
X153380000Y-63470000D01*
X150720000Y-63470000D02*
X152050000Y-63470000D01*
X150720000Y-64800000D02*
X150720000Y-63470000D01*
X153380000Y-66130000D02*
X153380000Y-63470000D01*
X153260000Y-66130000D02*
X153380000Y-66130000D01*
%TO.C,BZ1*%
X174145000Y-81620000D02*
X174145000Y-84220000D01*
X174145000Y-81620000D02*
X176805000Y-81620000D01*
X174145000Y-84220000D02*
X176805000Y-84220000D01*
X175475000Y-79020000D02*
X176805000Y-79020000D01*
X176805000Y-79020000D02*
X176805000Y-80350000D01*
X176805000Y-81620000D02*
X176805000Y-84220000D01*
%TO.C,J5*%
X174845000Y-108995000D02*
X174845000Y-114135000D01*
X174845000Y-108995000D02*
X177505000Y-108995000D01*
X174845000Y-114135000D02*
X177505000Y-114135000D01*
X176175000Y-106395000D02*
X177505000Y-106395000D01*
X177505000Y-106395000D02*
X177505000Y-107725000D01*
X177505000Y-108995000D02*
X177505000Y-114135000D01*
%TO.C,J8*%
X155185147Y-138855000D02*
X155185147Y-140125000D01*
X153915147Y-138855000D02*
X155185147Y-138855000D01*
X151755147Y-141167929D02*
X151755147Y-141565000D01*
X150995147Y-141167929D02*
X150995147Y-141565000D01*
X149215147Y-141167929D02*
X149215147Y-141565000D01*
X148455147Y-141167929D02*
X148455147Y-141565000D01*
X154295147Y-141235000D02*
X154295147Y-141565000D01*
X153535147Y-141235000D02*
X153535147Y-141565000D01*
X155245147Y-141565000D02*
X147505147Y-141565000D01*
X152645147Y-141565000D02*
X152645147Y-144225000D01*
X150105147Y-141565000D02*
X150105147Y-144225000D01*
X147505147Y-141565000D02*
X147505147Y-144225000D01*
X155245147Y-144225000D02*
X155245147Y-141565000D01*
X154295147Y-144225000D02*
X154295147Y-150225000D01*
X154235147Y-144225000D02*
X154235147Y-150225000D01*
X154115147Y-144225000D02*
X154115147Y-150225000D01*
X153995147Y-144225000D02*
X153995147Y-150225000D01*
X153875147Y-144225000D02*
X153875147Y-150225000D01*
X153755147Y-144225000D02*
X153755147Y-150225000D01*
X153635147Y-144225000D02*
X153635147Y-150225000D01*
X151755147Y-144225000D02*
X151755147Y-150225000D01*
X149215147Y-144225000D02*
X149215147Y-150225000D01*
X147505147Y-144225000D02*
X155245147Y-144225000D01*
X154295147Y-150225000D02*
X153535147Y-150225000D01*
X153535147Y-150225000D02*
X153535147Y-144225000D01*
X151755147Y-150225000D02*
X150995147Y-150225000D01*
X150995147Y-150225000D02*
X150995147Y-144225000D01*
X149215147Y-150225000D02*
X148455147Y-150225000D01*
X148455147Y-150225000D02*
X148455147Y-144225000D01*
%TO.C,J9*%
X138854853Y-150215000D02*
X146594853Y-150215000D01*
X138854853Y-150215000D02*
X138854853Y-141585000D01*
X138974853Y-150215000D02*
X138974853Y-141585000D01*
X139092948Y-150215000D02*
X139092948Y-141585000D01*
X139211043Y-150215000D02*
X139211043Y-141585000D01*
X139329138Y-150215000D02*
X139329138Y-141585000D01*
X139447233Y-150215000D02*
X139447233Y-141585000D01*
X139565328Y-150215000D02*
X139565328Y-141585000D01*
X139683423Y-150215000D02*
X139683423Y-141585000D01*
X139801518Y-150215000D02*
X139801518Y-141585000D01*
X139919613Y-150215000D02*
X139919613Y-141585000D01*
X140037708Y-150215000D02*
X140037708Y-141585000D01*
X140155803Y-150215000D02*
X140155803Y-141585000D01*
X140273898Y-150215000D02*
X140273898Y-141585000D01*
X140391993Y-150215000D02*
X140391993Y-141585000D01*
X140510088Y-150215000D02*
X140510088Y-141585000D01*
X140628183Y-150215000D02*
X140628183Y-141585000D01*
X140746278Y-150215000D02*
X140746278Y-141585000D01*
X140864373Y-150215000D02*
X140864373Y-141585000D01*
X140982468Y-150215000D02*
X140982468Y-141585000D01*
X141100563Y-150215000D02*
X141100563Y-141585000D01*
X141218658Y-150215000D02*
X141218658Y-141585000D01*
X141336753Y-150215000D02*
X141336753Y-141585000D01*
X141454853Y-150215000D02*
X141454853Y-141585000D01*
X143994853Y-150215000D02*
X143994853Y-141585000D01*
X146594853Y-150215000D02*
X146594853Y-141585000D01*
X138854853Y-141585000D02*
X146594853Y-141585000D01*
X139824853Y-141585000D02*
X139824853Y-141235000D01*
X140544853Y-141585000D02*
X140544853Y-141235000D01*
X142364853Y-141585000D02*
X142364853Y-141175000D01*
X143084853Y-141585000D02*
X143084853Y-141175000D01*
X144904853Y-141585000D02*
X144904853Y-141175000D01*
X145624853Y-141585000D02*
X145624853Y-141175000D01*
X138854853Y-140125000D02*
X138854853Y-139015000D01*
X138854853Y-139015000D02*
X140184853Y-139015000D01*
%TO.C,SW11*%
X154971264Y-133700000D02*
X154971264Y-135200000D01*
X156221264Y-137700000D02*
X160721264Y-137700000D01*
X160721264Y-131200000D02*
X156221264Y-131200000D01*
X161971264Y-135200000D02*
X161971264Y-133700000D01*
%TO.C,SW12*%
X133780984Y-137900000D02*
X134980984Y-137900000D01*
X136580984Y-137900000D02*
X137780984Y-137900000D01*
X137780984Y-137900000D02*
X137780984Y-131500000D01*
X133780984Y-131500000D02*
X133780984Y-137900000D01*
X134980984Y-131500000D02*
X133780984Y-131500000D01*
X137780984Y-131500000D02*
X136580984Y-131500000D01*
%TO.C,SW13*%
X165700000Y-99200000D02*
X165700000Y-100700000D01*
X166950000Y-103200000D02*
X171450000Y-103200000D01*
X171450000Y-96700000D02*
X166950000Y-96700000D01*
X172700000Y-100700000D02*
X172700000Y-99200000D01*
%TO.C,SW14*%
X172500000Y-125150000D02*
X172500000Y-123950000D01*
X172500000Y-122350000D02*
X172500000Y-121150000D01*
X172500000Y-121150000D02*
X166100000Y-121150000D01*
X166100000Y-125150000D02*
X172500000Y-125150000D01*
X166100000Y-123950000D02*
X166100000Y-125150000D01*
X166100000Y-121150000D02*
X166100000Y-122350000D01*
%TO.C,SW15*%
X130100000Y-80200000D02*
X130100000Y-81700000D01*
X131350000Y-84200000D02*
X135850000Y-84200000D01*
X135850000Y-77700000D02*
X131350000Y-77700000D01*
X137100000Y-81700000D02*
X137100000Y-80200000D01*
%TO.C,SW16*%
X162600000Y-77300000D02*
X161400000Y-77300000D01*
X159800000Y-77300000D02*
X158600000Y-77300000D01*
X158600000Y-77300000D02*
X158600000Y-83700000D01*
X162600000Y-83700000D02*
X162600000Y-77300000D01*
X161400000Y-83700000D02*
X162600000Y-83700000D01*
X158600000Y-83700000D02*
X159800000Y-83700000D01*
%TO.C,SW17*%
X127200000Y-122450000D02*
X127200000Y-120950000D01*
X125950000Y-118450000D02*
X121450000Y-118450000D01*
X121450000Y-124950000D02*
X125950000Y-124950000D01*
X120200000Y-120950000D02*
X120200000Y-122450000D01*
%TO.C,SW18*%
X120900000Y-98100000D02*
X120900000Y-99300000D01*
X120900000Y-100900000D02*
X120900000Y-102100000D01*
X120900000Y-102100000D02*
X127300000Y-102100000D01*
X127300000Y-98100000D02*
X120900000Y-98100000D01*
X127300000Y-99300000D02*
X127300000Y-98100000D01*
X127300000Y-102100000D02*
X127300000Y-100900000D01*
%TD*%
M02*
