%TF.GenerationSoftware,KiCad,Pcbnew,9.0.0*%
%TF.CreationDate,2025-07-22T14:39:13-04:00*%
%TF.ProjectId,shipwreckedpcb,73686970-7772-4656-936b-65647063622e,rev?*%
%TF.SameCoordinates,Original*%
%TF.FileFunction,Soldermask,Top*%
%TF.FilePolarity,Negative*%
%FSLAX46Y46*%
G04 Gerber Fmt 4.6, Leading zero omitted, Abs format (unit mm)*
G04 Created by KiCad (PCBNEW 9.0.0) date 2025-07-22 14:39:13*
%MOMM*%
%LPD*%
G01*
G04 APERTURE LIST*
%ADD10C,2.000000*%
%ADD11R,1.700000X1.700000*%
%ADD12R,1.800000X1.800000*%
%ADD13C,1.800000*%
%ADD14O,1.700000X1.700000*%
%ADD15R,2.000000X2.000000*%
%ADD16C,0.650000*%
%ADD17O,1.800000X1.000000*%
%ADD18O,2.100000X1.000000*%
%ADD19C,3.300000*%
%ADD20C,0.600000*%
%ADD21C,0.900000*%
G04 APERTURE END LIST*
D10*
%TO.C,SW5*%
X165909524Y-132100000D03*
X172409524Y-132100000D03*
X165909524Y-136600001D03*
X172409525Y-136600000D03*
%TD*%
%TO.C,SW7*%
X165909524Y-89000000D03*
X172409524Y-89000000D03*
X165909524Y-93500001D03*
X172409525Y-93500000D03*
%TD*%
%TO.C,SW13*%
X165909524Y-99775000D03*
X172409524Y-99775000D03*
X165909524Y-104275000D03*
X172409524Y-104275000D03*
%TD*%
%TO.C,SW18*%
X120959524Y-99775000D03*
X127459524Y-99775000D03*
X120959524Y-104275000D03*
X127459524Y-104275000D03*
%TD*%
D11*
%TO.C,AE1*%
X145850000Y-64850000D03*
%TD*%
D10*
%TO.C,SW16*%
X154672024Y-78750000D03*
X161172024Y-78750000D03*
X154672024Y-83250000D03*
X161172024Y-83250000D03*
%TD*%
%TO.C,SW14*%
X165909524Y-121325000D03*
X172409524Y-121325000D03*
X165909524Y-125825000D03*
X172409524Y-125825000D03*
%TD*%
D12*
%TO.C,D5*%
X142100000Y-64950000D03*
D13*
X139560000Y-64950000D03*
%TD*%
D10*
%TO.C,SW9*%
X120959524Y-89000000D03*
X127459524Y-89000000D03*
X120959524Y-93500001D03*
X127459525Y-93500000D03*
%TD*%
%TO.C,SW6*%
X165909524Y-110550000D03*
X172409524Y-110550000D03*
X165909524Y-115050000D03*
X172409524Y-115050000D03*
%TD*%
%TO.C,SW4*%
X143434524Y-132100000D03*
X149934524Y-132100000D03*
X143434524Y-136600000D03*
X149934524Y-136600000D03*
%TD*%
D11*
%TO.C,J9*%
X140184853Y-140125000D03*
D14*
X142724853Y-140125000D03*
X145264853Y-140125000D03*
%TD*%
D11*
%TO.C,J8*%
X153915147Y-140125000D03*
D14*
X151375147Y-140125000D03*
X148835147Y-140125000D03*
%TD*%
D11*
%TO.C,J5*%
X176175000Y-107725000D03*
D14*
X176175000Y-110265000D03*
X176175000Y-112805000D03*
%TD*%
D15*
%TO.C,BZ1*%
X175450000Y-75000000D03*
D10*
X175450000Y-85000000D03*
%TD*%
%TO.C,SW17*%
X120959524Y-121325000D03*
X127459524Y-121325000D03*
X120959524Y-125825000D03*
X127459524Y-125825000D03*
%TD*%
%TO.C,SW11*%
X154672024Y-132100000D03*
X161172024Y-132100000D03*
X154672024Y-136600000D03*
X161172024Y-136600000D03*
%TD*%
%TO.C,SW8*%
X143434524Y-78750000D03*
X149934524Y-78750000D03*
X143434524Y-83250000D03*
X149934524Y-83250000D03*
%TD*%
%TO.C,SW3*%
X120959524Y-132100000D03*
X127459524Y-132100000D03*
X120959524Y-136600001D03*
X127459525Y-136600000D03*
%TD*%
%TO.C,SW10*%
X120959524Y-110550000D03*
X127459524Y-110550000D03*
X120959524Y-115050000D03*
X127459524Y-115050000D03*
%TD*%
%TO.C,SW15*%
X132197024Y-78750000D03*
X138697024Y-78750000D03*
X132197024Y-83250000D03*
X138697024Y-83250000D03*
%TD*%
%TO.C,SW12*%
X132197024Y-132100000D03*
X138697024Y-132100000D03*
X132197024Y-136600000D03*
X138697024Y-136600000D03*
%TD*%
D16*
%TO.C,J1*%
X122465000Y-83140000D03*
X122465000Y-77360000D03*
D17*
X118785000Y-84570000D03*
D18*
X122965000Y-84570000D03*
D17*
X118785000Y-75930000D03*
D18*
X122965000Y-75930000D03*
%TD*%
D19*
%TO.C,BT1*%
X154545000Y-99565000D03*
X139555000Y-99565000D03*
D15*
X139555000Y-72400000D03*
D10*
X154545000Y-72400000D03*
%TD*%
D20*
%TO.C,U4*%
X125650000Y-68500000D03*
X124150000Y-68500000D03*
X124900000Y-69000000D03*
X125650000Y-69500000D03*
X124150000Y-69500000D03*
%TD*%
D21*
%TO.C,SW19*%
X131850000Y-63820000D03*
X134850000Y-63820000D03*
%TD*%
M02*
