%TF.GenerationSoftware,KiCad,Pcbnew,9.0.0*%
%TF.CreationDate,2025-06-27T17:55:50-04:00*%
%TF.ProjectId,shipwreckedpcb,73686970-7772-4656-936b-65647063622e,rev?*%
%TF.SameCoordinates,Original*%
%TF.FileFunction,Soldermask,Bot*%
%TF.FilePolarity,Negative*%
%FSLAX46Y46*%
G04 Gerber Fmt 4.6, Leading zero omitted, Abs format (unit mm)*
G04 Created by KiCad (PCBNEW 9.0.0) date 2025-06-27 17:55:50*
%MOMM*%
%LPD*%
G01*
G04 APERTURE LIST*
G04 Aperture macros list*
%AMRoundRect*
0 Rectangle with rounded corners*
0 $1 Rounding radius*
0 $2 $3 $4 $5 $6 $7 $8 $9 X,Y pos of 4 corners*
0 Add a 4 corners polygon primitive as box body*
4,1,4,$2,$3,$4,$5,$6,$7,$8,$9,$2,$3,0*
0 Add four circle primitives for the rounded corners*
1,1,$1+$1,$2,$3*
1,1,$1+$1,$4,$5*
1,1,$1+$1,$6,$7*
1,1,$1+$1,$8,$9*
0 Add four rect primitives between the rounded corners*
20,1,$1+$1,$2,$3,$4,$5,0*
20,1,$1+$1,$4,$5,$6,$7,0*
20,1,$1+$1,$6,$7,$8,$9,0*
20,1,$1+$1,$8,$9,$2,$3,0*%
%AMFreePoly0*
4,1,23,0.500000,-0.750000,0.000000,-0.750000,0.000000,-0.745722,-0.065263,-0.745722,-0.191342,-0.711940,-0.304381,-0.646677,-0.396677,-0.554381,-0.461940,-0.441342,-0.495722,-0.315263,-0.495722,-0.250000,-0.500000,-0.250000,-0.500000,0.250000,-0.495722,0.250000,-0.495722,0.315263,-0.461940,0.441342,-0.396677,0.554381,-0.304381,0.646677,-0.191342,0.711940,-0.065263,0.745722,0.000000,0.745722,
0.000000,0.750000,0.500000,0.750000,0.500000,-0.750000,0.500000,-0.750000,$1*%
%AMFreePoly1*
4,1,23,0.000000,0.745722,0.065263,0.745722,0.191342,0.711940,0.304381,0.646677,0.396677,0.554381,0.461940,0.441342,0.495722,0.315263,0.495722,0.250000,0.500000,0.250000,0.500000,-0.250000,0.495722,-0.250000,0.495722,-0.315263,0.461940,-0.441342,0.396677,-0.554381,0.304381,-0.646677,0.191342,-0.711940,0.065263,-0.745722,0.000000,-0.745722,0.000000,-0.750000,-0.500000,-0.750000,
-0.500000,0.750000,0.000000,0.750000,0.000000,0.745722,0.000000,0.745722,$1*%
G04 Aperture macros list end*
%ADD10RoundRect,0.250000X0.300000X0.300000X-0.300000X0.300000X-0.300000X-0.300000X0.300000X-0.300000X0*%
%ADD11RoundRect,0.225000X0.250000X-0.225000X0.250000X0.225000X-0.250000X0.225000X-0.250000X-0.225000X0*%
%ADD12C,1.800000*%
%ADD13R,1.800000X1.800000*%
%ADD14R,1.700000X1.700000*%
%ADD15RoundRect,0.225000X0.225000X0.250000X-0.225000X0.250000X-0.225000X-0.250000X0.225000X-0.250000X0*%
%ADD16RoundRect,0.100000X0.225000X0.100000X-0.225000X0.100000X-0.225000X-0.100000X0.225000X-0.100000X0*%
%ADD17RoundRect,0.075000X0.075000X0.237500X-0.075000X0.237500X-0.075000X-0.237500X0.075000X-0.237500X0*%
%ADD18RoundRect,0.075000X0.225000X0.075000X-0.225000X0.075000X-0.225000X-0.075000X0.225000X-0.075000X0*%
%ADD19RoundRect,0.218750X0.218750X0.256250X-0.218750X0.256250X-0.218750X-0.256250X0.218750X-0.256250X0*%
%ADD20RoundRect,0.225000X-0.250000X0.225000X-0.250000X-0.225000X0.250000X-0.225000X0.250000X0.225000X0*%
%ADD21R,1.400000X1.200000*%
%ADD22RoundRect,0.218750X0.381250X-0.218750X0.381250X0.218750X-0.381250X0.218750X-0.381250X-0.218750X0*%
%ADD23RoundRect,0.200000X0.200000X0.275000X-0.200000X0.275000X-0.200000X-0.275000X0.200000X-0.275000X0*%
%ADD24RoundRect,0.062500X-0.062500X0.350000X-0.062500X-0.350000X0.062500X-0.350000X0.062500X0.350000X0*%
%ADD25RoundRect,0.062500X-0.350000X0.062500X-0.350000X-0.062500X0.350000X-0.062500X0.350000X0.062500X0*%
%ADD26R,2.600000X2.600000*%
%ADD27C,3.300000*%
%ADD28R,2.000000X2.000000*%
%ADD29C,2.000000*%
%ADD30O,1.700000X1.700000*%
%ADD31RoundRect,0.225000X-0.225000X-0.250000X0.225000X-0.250000X0.225000X0.250000X-0.225000X0.250000X0*%
%ADD32RoundRect,0.225000X0.375000X-0.225000X0.375000X0.225000X-0.375000X0.225000X-0.375000X-0.225000X0*%
%ADD33RoundRect,0.225000X-0.375000X0.225000X-0.375000X-0.225000X0.375000X-0.225000X0.375000X0.225000X0*%
%ADD34RoundRect,0.200000X-0.275000X0.200000X-0.275000X-0.200000X0.275000X-0.200000X0.275000X0.200000X0*%
%ADD35C,0.650000*%
%ADD36RoundRect,0.150000X0.425000X-0.150000X0.425000X0.150000X-0.425000X0.150000X-0.425000X-0.150000X0*%
%ADD37RoundRect,0.075000X0.500000X-0.075000X0.500000X0.075000X-0.500000X0.075000X-0.500000X-0.075000X0*%
%ADD38O,2.100000X1.000000*%
%ADD39O,1.800000X1.000000*%
%ADD40R,0.300000X1.100000*%
%ADD41R,2.300000X3.100000*%
%ADD42RoundRect,0.250000X-0.750000X0.250000X-0.750000X-0.250000X0.750000X-0.250000X0.750000X0.250000X0*%
%ADD43RoundRect,0.250000X0.750000X-0.250000X0.750000X0.250000X-0.750000X0.250000X-0.750000X-0.250000X0*%
%ADD44FreePoly0,180.000000*%
%ADD45FreePoly1,180.000000*%
%ADD46RoundRect,0.218750X-0.256250X0.218750X-0.256250X-0.218750X0.256250X-0.218750X0.256250X0.218750X0*%
%ADD47R,0.800000X2.700000*%
%ADD48RoundRect,0.112500X-0.112500X-0.237500X0.112500X-0.237500X0.112500X0.237500X-0.112500X0.237500X0*%
%ADD49RoundRect,0.200000X-0.200000X-0.275000X0.200000X-0.275000X0.200000X0.275000X-0.200000X0.275000X0*%
%ADD50RoundRect,0.200000X0.275000X-0.200000X0.275000X0.200000X-0.275000X0.200000X-0.275000X-0.200000X0*%
%ADD51RoundRect,0.200000X0.335876X0.053033X0.053033X0.335876X-0.335876X-0.053033X-0.053033X-0.335876X0*%
%ADD52RoundRect,0.200000X-0.053033X0.335876X-0.335876X0.053033X0.053033X-0.335876X0.335876X-0.053033X0*%
%ADD53RoundRect,0.200000X-0.335876X-0.053033X-0.053033X-0.335876X0.335876X0.053033X0.053033X0.335876X0*%
%ADD54RoundRect,0.200000X0.053033X-0.335876X0.335876X-0.053033X-0.053033X0.335876X-0.335876X0.053033X0*%
%ADD55R,1.000000X1.250000*%
%ADD56R,1.250000X1.000000*%
%ADD57R,1.000000X0.800000*%
%ADD58C,0.900000*%
%ADD59R,0.700000X1.500000*%
%ADD60RoundRect,0.050000X-0.050000X0.387500X-0.050000X-0.387500X0.050000X-0.387500X0.050000X0.387500X0*%
%ADD61RoundRect,0.050000X-0.387500X0.050000X-0.387500X-0.050000X0.387500X-0.050000X0.387500X0.050000X0*%
%ADD62R,3.200000X3.200000*%
%ADD63RoundRect,0.162500X0.650000X0.162500X-0.650000X0.162500X-0.650000X-0.162500X0.650000X-0.162500X0*%
%ADD64R,0.280000X0.280000*%
%ADD65O,0.280000X0.850000*%
%ADD66C,0.600000*%
%ADD67R,1.050000X0.680000*%
%ADD68R,0.500000X0.260000*%
%ADD69R,0.700000X0.280000*%
%ADD70R,2.400000X1.650000*%
%ADD71RoundRect,0.375000X0.375000X-0.625000X0.375000X0.625000X-0.375000X0.625000X-0.375000X-0.625000X0*%
%ADD72RoundRect,0.500000X1.400000X-0.500000X1.400000X0.500000X-1.400000X0.500000X-1.400000X-0.500000X0*%
%ADD73RoundRect,0.100000X0.637500X0.100000X-0.637500X0.100000X-0.637500X-0.100000X0.637500X-0.100000X0*%
%ADD74R,1.200000X1.400000*%
G04 APERTURE END LIST*
%TO.C,JP1*%
G36*
X162362500Y-86700000D02*
G01*
X162062500Y-86700000D01*
X162062500Y-88200000D01*
X162362500Y-88200000D01*
X162362500Y-86700000D01*
G37*
%TO.C,JP2*%
G36*
X162362500Y-91000000D02*
G01*
X162062500Y-91000000D01*
X162062500Y-92500000D01*
X162362500Y-92500000D01*
X162362500Y-91000000D01*
G37*
%TO.C,JP3*%
G36*
X162274448Y-95324232D02*
G01*
X161974448Y-95324232D01*
X161974448Y-96824232D01*
X162274448Y-96824232D01*
X162274448Y-95324232D01*
G37*
%TD*%
D10*
%TO.C,D1*%
X128250000Y-83650000D03*
X125450000Y-83650000D03*
%TD*%
D11*
%TO.C,C24*%
X167350000Y-71525000D03*
X167350000Y-69975000D03*
%TD*%
D12*
%TO.C,D5*%
X145735000Y-64950000D03*
D13*
X148275000Y-64950000D03*
%TD*%
D14*
%TO.C,AE1*%
X152050000Y-64800000D03*
%TD*%
D15*
%TO.C,C63*%
X154475000Y-65550000D03*
X156025000Y-65550000D03*
%TD*%
D16*
%TO.C,U3*%
X157450000Y-64800000D03*
X157450000Y-65450000D03*
X157450000Y-66100000D03*
X159350000Y-66100000D03*
X159350000Y-65450000D03*
X159350000Y-64800000D03*
%TD*%
D17*
%TO.C,FL1*%
X161300000Y-64137500D03*
D18*
X160600000Y-64450000D03*
X160600000Y-64950000D03*
X160600000Y-65450000D03*
X160600000Y-65950000D03*
D17*
X161300000Y-66262500D03*
D18*
X162000000Y-65950000D03*
X162000000Y-65450000D03*
X162000000Y-64950000D03*
X162000000Y-64450000D03*
%TD*%
D19*
%TO.C,L10*%
X163262500Y-64450000D03*
X164837500Y-64450000D03*
%TD*%
D11*
%TO.C,C62*%
X166300000Y-63575000D03*
X166300000Y-65125000D03*
%TD*%
%TO.C,C57*%
X167800000Y-63975000D03*
X167800000Y-65525000D03*
%TD*%
D20*
%TO.C,C65*%
X169300000Y-65225000D03*
X169300000Y-63675000D03*
%TD*%
%TO.C,C25*%
X175100000Y-63275000D03*
X175100000Y-64825000D03*
%TD*%
D21*
%TO.C,Y2*%
X173350000Y-64950000D03*
X171150000Y-64950000D03*
X171150000Y-63250000D03*
X173350000Y-63250000D03*
%TD*%
D20*
%TO.C,C67*%
X175150000Y-66275000D03*
X175150000Y-67825000D03*
%TD*%
%TO.C,C66*%
X175050000Y-69725000D03*
X175050000Y-71275000D03*
%TD*%
D15*
%TO.C,C64*%
X159125000Y-67900000D03*
X157575000Y-67900000D03*
%TD*%
D22*
%TO.C,L11*%
X176850000Y-68362500D03*
X176850000Y-66237500D03*
%TD*%
D23*
%TO.C,R23*%
X162175000Y-67900000D03*
X160525000Y-67900000D03*
%TD*%
D24*
%TO.C,U8*%
X170400000Y-66650000D03*
X170900000Y-66650000D03*
X171400000Y-66650000D03*
X171900000Y-66650000D03*
X172400000Y-66650000D03*
X172900000Y-66650000D03*
D25*
X173587500Y-67337500D03*
X173587500Y-67837500D03*
X173587500Y-68337500D03*
X173587500Y-68837500D03*
X173587500Y-69337500D03*
X173587500Y-69837500D03*
D24*
X172900000Y-70525000D03*
X172400000Y-70525000D03*
X171900000Y-70525000D03*
X171400000Y-70525000D03*
X170900000Y-70525000D03*
X170400000Y-70525000D03*
D25*
X169712500Y-69837500D03*
X169712500Y-69337500D03*
X169712500Y-68837500D03*
X169712500Y-68337500D03*
X169712500Y-67837500D03*
X169712500Y-67337500D03*
D26*
X171650000Y-68587500D03*
%TD*%
D27*
%TO.C,BT1*%
X139555000Y-99550000D03*
X154545000Y-99550000D03*
D28*
X139555000Y-72385000D03*
D29*
X154545000Y-72385000D03*
%TD*%
D14*
%TO.C,BZ1*%
X175475000Y-80350000D03*
D30*
X175475000Y-82890000D03*
%TD*%
D15*
%TO.C,C1*%
X140975000Y-105650000D03*
X139425000Y-105650000D03*
%TD*%
D31*
%TO.C,C2*%
X153525000Y-108500000D03*
X155075000Y-108500000D03*
%TD*%
%TO.C,C3*%
X140175000Y-110150000D03*
X141725000Y-110150000D03*
%TD*%
D11*
%TO.C,C4*%
X142200000Y-101675000D03*
X142200000Y-100125000D03*
%TD*%
D15*
%TO.C,C5*%
X140725000Y-102300000D03*
X139175000Y-102300000D03*
%TD*%
D11*
%TO.C,C6*%
X147800000Y-100825000D03*
X147800000Y-99275000D03*
%TD*%
D31*
%TO.C,C7*%
X152575000Y-107000000D03*
X154125000Y-107000000D03*
%TD*%
D20*
%TO.C,C8*%
X147750000Y-111875000D03*
X147750000Y-113425000D03*
%TD*%
%TO.C,C9*%
X143650000Y-111607500D03*
X143650000Y-113157500D03*
%TD*%
%TO.C,C10*%
X141696992Y-111628710D03*
X141696992Y-113178710D03*
%TD*%
%TO.C,C11*%
X140196992Y-111628710D03*
X140196992Y-113178710D03*
%TD*%
D31*
%TO.C,C12*%
X132637500Y-101255000D03*
X134187500Y-101255000D03*
%TD*%
D11*
%TO.C,C13*%
X158050000Y-104525000D03*
X158050000Y-102975000D03*
%TD*%
D15*
%TO.C,C14*%
X157125000Y-107000000D03*
X155575000Y-107000000D03*
%TD*%
D11*
%TO.C,C15*%
X150850000Y-123800000D03*
X150850000Y-122250000D03*
%TD*%
%TO.C,C16*%
X145900000Y-123800000D03*
X145900000Y-122250000D03*
%TD*%
%TO.C,C17*%
X144400000Y-123800000D03*
X144400000Y-122250000D03*
%TD*%
%TO.C,C18*%
X142900000Y-123800000D03*
X142900000Y-122250000D03*
%TD*%
%TO.C,C19*%
X141400000Y-123800000D03*
X141400000Y-122250000D03*
%TD*%
%TO.C,C20*%
X139900000Y-123800000D03*
X139900000Y-122250000D03*
%TD*%
%TO.C,C21*%
X156700000Y-123525000D03*
X156700000Y-121975000D03*
%TD*%
%TO.C,C22*%
X159800000Y-123525000D03*
X159800000Y-121975000D03*
%TD*%
%TO.C,C23*%
X134550000Y-116325000D03*
X134550000Y-114775000D03*
%TD*%
D15*
%TO.C,C51*%
X143425000Y-72550000D03*
X141875000Y-72550000D03*
%TD*%
D20*
%TO.C,C52*%
X122000000Y-67550000D03*
X122000000Y-69100000D03*
%TD*%
D11*
%TO.C,C53*%
X127800000Y-69025000D03*
X127800000Y-67475000D03*
%TD*%
%TO.C,C54*%
X120500000Y-69100000D03*
X120500000Y-67550000D03*
%TD*%
%TO.C,C55*%
X119000000Y-69100000D03*
X119000000Y-67550000D03*
%TD*%
D31*
%TO.C,C56*%
X150925000Y-87975000D03*
X152475000Y-87975000D03*
%TD*%
%TO.C,C60*%
X167950000Y-83825000D03*
X169500000Y-83825000D03*
%TD*%
D15*
%TO.C,C61*%
X166400000Y-83825000D03*
X164850000Y-83825000D03*
%TD*%
D32*
%TO.C,D2*%
X159050000Y-120000000D03*
X159050000Y-116700000D03*
%TD*%
D33*
%TO.C,D3*%
X161350000Y-116700000D03*
X161350000Y-120000000D03*
%TD*%
%TO.C,D4*%
X136500000Y-114750000D03*
X136500000Y-118050000D03*
%TD*%
D34*
%TO.C,FB1*%
X125435000Y-75195000D03*
X125435000Y-76845000D03*
%TD*%
D35*
%TO.C,J1*%
X122465000Y-83140000D03*
X122465000Y-77360000D03*
D36*
X123540000Y-83450000D03*
X123540000Y-82650000D03*
D37*
X123540000Y-81500000D03*
X123540000Y-80500000D03*
X123540000Y-80000000D03*
X123540000Y-79000000D03*
D36*
X123540000Y-77850000D03*
X123540000Y-77050000D03*
X123540000Y-77050000D03*
X123540000Y-77850000D03*
D37*
X123540000Y-78500000D03*
X123540000Y-79500000D03*
X123540000Y-81000000D03*
X123540000Y-82000000D03*
D36*
X123540000Y-82650000D03*
X123540000Y-83450000D03*
D38*
X122965000Y-84570000D03*
D39*
X118785000Y-84570000D03*
D38*
X122965000Y-75930000D03*
D39*
X118785000Y-75930000D03*
%TD*%
D40*
%TO.C,J2*%
X152750000Y-115250000D03*
X152250000Y-115250000D03*
X151750000Y-115250000D03*
X151250000Y-115250000D03*
X150750000Y-115250000D03*
X150250000Y-115250000D03*
X149750000Y-115250000D03*
X149250000Y-115250000D03*
X148750000Y-115250000D03*
X148250000Y-115250000D03*
X147750000Y-115250000D03*
X147250000Y-115250000D03*
X146750000Y-115250000D03*
X146250000Y-115250000D03*
X145750000Y-115250000D03*
X145250000Y-115250000D03*
X144750000Y-115250000D03*
X144250000Y-115250000D03*
X143750000Y-115250000D03*
X143250000Y-115250000D03*
X142750000Y-115250000D03*
X142250000Y-115250000D03*
X141750000Y-115250000D03*
X141250000Y-115250000D03*
D41*
X154420000Y-116950000D03*
X139580000Y-116950000D03*
%TD*%
D42*
%TO.C,J3*%
X117650000Y-86489412D03*
%TD*%
%TO.C,J4*%
X117650000Y-88292941D03*
%TD*%
D14*
%TO.C,J5*%
X176175000Y-107725000D03*
D30*
X176175000Y-110265000D03*
X176175000Y-112805000D03*
%TD*%
D42*
%TO.C,J6*%
X117650000Y-90096471D03*
%TD*%
%TO.C,J7*%
X117650000Y-91900000D03*
%TD*%
D14*
%TO.C,J8*%
X153915147Y-140125000D03*
D30*
X151375147Y-140125000D03*
X148835147Y-140125000D03*
%TD*%
D14*
%TO.C,J9*%
X140184853Y-140125000D03*
D30*
X142724853Y-140125000D03*
X145264853Y-140125000D03*
%TD*%
D42*
%TO.C,J14*%
X117650000Y-93703530D03*
%TD*%
%TO.C,J15*%
X117650000Y-95507059D03*
%TD*%
%TO.C,J16*%
X117650000Y-97310588D03*
%TD*%
%TO.C,J17*%
X117650000Y-99114118D03*
%TD*%
%TO.C,J18*%
X117650000Y-100917647D03*
%TD*%
%TO.C,J19*%
X117650000Y-102721177D03*
%TD*%
%TO.C,J20*%
X117650000Y-104524706D03*
%TD*%
%TO.C,J21*%
X117650000Y-106328236D03*
%TD*%
%TO.C,J22*%
X117650000Y-108131765D03*
%TD*%
%TO.C,J23*%
X117650000Y-109935294D03*
%TD*%
%TO.C,J24*%
X117650000Y-111738824D03*
%TD*%
%TO.C,J25*%
X117650000Y-113542353D03*
%TD*%
%TO.C,J26*%
X117650000Y-115345883D03*
%TD*%
%TO.C,J28*%
X117650000Y-117149412D03*
%TD*%
D43*
%TO.C,J29*%
X176375000Y-127790000D03*
%TD*%
%TO.C,J30*%
X176375000Y-125457500D03*
%TD*%
%TO.C,J31*%
X176450000Y-102050000D03*
%TD*%
%TO.C,J32*%
X176450000Y-100206250D03*
%TD*%
%TO.C,J33*%
X176450000Y-98362500D03*
%TD*%
%TO.C,J34*%
X176450000Y-96518750D03*
%TD*%
%TO.C,J35*%
X176450000Y-94675000D03*
%TD*%
%TO.C,J36*%
X176450000Y-92831250D03*
%TD*%
%TO.C,J37*%
X176450000Y-90987500D03*
%TD*%
%TO.C,J38*%
X176450000Y-89143750D03*
%TD*%
%TO.C,J39*%
X176450000Y-87300000D03*
%TD*%
%TO.C,J40*%
X176375000Y-123125000D03*
%TD*%
D44*
%TO.C,JP1*%
X162862500Y-87450000D03*
D45*
X161562500Y-87450000D03*
%TD*%
D44*
%TO.C,JP2*%
X162862500Y-91750000D03*
D45*
X161562500Y-91750000D03*
%TD*%
D44*
%TO.C,JP3*%
X162774448Y-96074232D03*
D45*
X161474448Y-96074232D03*
%TD*%
D46*
%TO.C,L1*%
X158250000Y-121962500D03*
X158250000Y-123537500D03*
%TD*%
D47*
%TO.C,L9*%
X126950000Y-64900000D03*
X124750000Y-64900000D03*
%TD*%
D48*
%TO.C,Q1*%
X153850000Y-122025000D03*
X155150000Y-122025000D03*
X154500000Y-124025000D03*
%TD*%
D23*
%TO.C,R1*%
X153230534Y-105505065D03*
X151580534Y-105505065D03*
%TD*%
D49*
%TO.C,R2*%
X139675000Y-107150000D03*
X141325000Y-107150000D03*
%TD*%
%TO.C,R3*%
X139675000Y-108650000D03*
X141325000Y-108650000D03*
%TD*%
%TO.C,R4*%
X125310000Y-81750000D03*
X126960000Y-81750000D03*
%TD*%
%TO.C,R5*%
X125360000Y-78270000D03*
X127010000Y-78270000D03*
%TD*%
D50*
%TO.C,R6*%
X153600000Y-112225000D03*
X153600000Y-110575000D03*
%TD*%
D34*
%TO.C,R7*%
X136150000Y-99350000D03*
X136150000Y-101000000D03*
%TD*%
D50*
%TO.C,R8*%
X157050000Y-120025000D03*
X157050000Y-118375000D03*
%TD*%
D34*
%TO.C,R9*%
X152350000Y-122200000D03*
X152350000Y-123850000D03*
%TD*%
D51*
%TO.C,R10*%
X128233363Y-131283363D03*
X127066637Y-130116637D03*
%TD*%
D23*
%TO.C,R11*%
X147925000Y-129500000D03*
X146275000Y-129500000D03*
%TD*%
D52*
%TO.C,R12*%
X167033363Y-130116637D03*
X165866637Y-131283363D03*
%TD*%
D34*
%TO.C,R13*%
X165400000Y-111225000D03*
X165400000Y-112875000D03*
%TD*%
D53*
%TO.C,R14*%
X165816637Y-91866637D03*
X166983363Y-93033363D03*
%TD*%
D49*
%TO.C,R15*%
X146575000Y-85650000D03*
X148225000Y-85650000D03*
%TD*%
D54*
%TO.C,R16*%
X127366637Y-94283363D03*
X128533363Y-93116637D03*
%TD*%
D50*
%TO.C,R17*%
X129150000Y-110975000D03*
X129150000Y-109325000D03*
%TD*%
D49*
%TO.C,R18*%
X120725000Y-71975000D03*
X122375000Y-71975000D03*
%TD*%
D34*
%TO.C,R19*%
X123800000Y-71900000D03*
X123800000Y-73550000D03*
%TD*%
D49*
%TO.C,R20*%
X161337500Y-89600000D03*
X162987500Y-89600000D03*
%TD*%
%TO.C,R21*%
X161287500Y-93950000D03*
X162937500Y-93950000D03*
%TD*%
%TO.C,R22*%
X161299448Y-98224232D03*
X162949448Y-98224232D03*
%TD*%
D55*
%TO.C,SW1*%
X136150000Y-89975000D03*
X136150000Y-97725000D03*
%TD*%
D56*
%TO.C,SW2*%
X163025000Y-110650000D03*
X155275000Y-110650000D03*
%TD*%
D29*
%TO.C,SW11*%
X155221264Y-132200000D03*
X161721264Y-132200000D03*
X155221264Y-136700000D03*
X161721264Y-136700000D03*
%TD*%
%TO.C,SW13*%
X165950000Y-97700000D03*
X172450000Y-97700000D03*
X165950000Y-102200000D03*
X172450000Y-102200000D03*
%TD*%
%TO.C,SW15*%
X130350000Y-78700000D03*
X136850000Y-78700000D03*
X130350000Y-83200000D03*
X136850000Y-83200000D03*
%TD*%
%TO.C,SW17*%
X126950000Y-123950000D03*
X120450000Y-123950000D03*
X126950000Y-119450000D03*
X120450000Y-119450000D03*
%TD*%
D57*
%TO.C,SW19*%
X130275000Y-64930000D03*
X130275000Y-62720000D03*
D58*
X132425000Y-63820000D03*
X135425000Y-63820000D03*
D57*
X137575000Y-64930000D03*
X137575000Y-62720000D03*
D59*
X131675000Y-65580000D03*
X134675000Y-65580000D03*
X136175000Y-65580000D03*
%TD*%
D60*
%TO.C,U1*%
X144105000Y-103212500D03*
X144505000Y-103212500D03*
X144905000Y-103212500D03*
X145305000Y-103212500D03*
X145705000Y-103212500D03*
X146105000Y-103212500D03*
X146505000Y-103212500D03*
X146905000Y-103212500D03*
X147305000Y-103212500D03*
X147705000Y-103212500D03*
X148105000Y-103212500D03*
X148505000Y-103212500D03*
X148905000Y-103212500D03*
X149305000Y-103212500D03*
D61*
X150142500Y-104050000D03*
X150142500Y-104450000D03*
X150142500Y-104850000D03*
X150142500Y-105250000D03*
X150142500Y-105650000D03*
X150142500Y-106050000D03*
X150142500Y-106450000D03*
X150142500Y-106850000D03*
X150142500Y-107250000D03*
X150142500Y-107650000D03*
X150142500Y-108050000D03*
X150142500Y-108450000D03*
X150142500Y-108850000D03*
X150142500Y-109250000D03*
D60*
X149305000Y-110087500D03*
X148905000Y-110087500D03*
X148505000Y-110087500D03*
X148105000Y-110087500D03*
X147705000Y-110087500D03*
X147305000Y-110087500D03*
X146905000Y-110087500D03*
X146505000Y-110087500D03*
X146105000Y-110087500D03*
X145705000Y-110087500D03*
X145305000Y-110087500D03*
X144905000Y-110087500D03*
X144505000Y-110087500D03*
X144105000Y-110087500D03*
D61*
X143267500Y-109250000D03*
X143267500Y-108850000D03*
X143267500Y-108450000D03*
X143267500Y-108050000D03*
X143267500Y-107650000D03*
X143267500Y-107250000D03*
X143267500Y-106850000D03*
X143267500Y-106450000D03*
X143267500Y-106050000D03*
X143267500Y-105650000D03*
X143267500Y-105250000D03*
X143267500Y-104850000D03*
X143267500Y-104450000D03*
X143267500Y-104050000D03*
D62*
X146705000Y-106650000D03*
%TD*%
D63*
%TO.C,U2*%
X137187500Y-103095000D03*
X137187500Y-104365000D03*
X137187500Y-105635000D03*
X137187500Y-106905000D03*
X130012500Y-106905000D03*
X130012500Y-105635000D03*
X130012500Y-104365000D03*
X130012500Y-103095000D03*
%TD*%
D64*
%TO.C,U4*%
X123900000Y-67240000D03*
D65*
X123900000Y-67525000D03*
D64*
X124400000Y-67240000D03*
D65*
X124400000Y-67525000D03*
D64*
X124900000Y-67240000D03*
D65*
X124900000Y-67525000D03*
D64*
X125400000Y-67240000D03*
D65*
X125400000Y-67525000D03*
D64*
X125900000Y-67240000D03*
D65*
X125900000Y-67525000D03*
X125900000Y-70475000D03*
D64*
X125900000Y-70760000D03*
D65*
X125400000Y-70475000D03*
D64*
X125400000Y-70760000D03*
D65*
X124900000Y-70475000D03*
D64*
X124900000Y-70760000D03*
D65*
X124400000Y-70475000D03*
D64*
X124400000Y-70760000D03*
D65*
X123900000Y-70475000D03*
D64*
X123900000Y-70760000D03*
D66*
X124150000Y-68500000D03*
X125650000Y-68500000D03*
D67*
X124265000Y-68550000D03*
X125535000Y-68550000D03*
D68*
X123270000Y-68750000D03*
D69*
X123350000Y-68750000D03*
X126450000Y-68750000D03*
D68*
X126530000Y-68750000D03*
D66*
X124900000Y-69000000D03*
D70*
X124900000Y-69000000D03*
D68*
X123270000Y-69250000D03*
D69*
X123350000Y-69250000D03*
X126450000Y-69250000D03*
D68*
X126530000Y-69250000D03*
D67*
X124265000Y-69450000D03*
X125535000Y-69450000D03*
D66*
X124150000Y-69500000D03*
X125650000Y-69500000D03*
%TD*%
D71*
%TO.C,U6*%
X170312500Y-81700000D03*
X168012500Y-81700000D03*
D72*
X168012500Y-75400000D03*
D71*
X165712500Y-81700000D03*
%TD*%
D73*
%TO.C,U7*%
X158162500Y-89275000D03*
X158162500Y-89925000D03*
X158162500Y-90575000D03*
X158162500Y-91225000D03*
X158162500Y-91875000D03*
X158162500Y-92525000D03*
X158162500Y-93175000D03*
X158162500Y-93825000D03*
X158162500Y-94475000D03*
X158162500Y-95125000D03*
X158162500Y-95775000D03*
X158162500Y-96425000D03*
X152437500Y-96425000D03*
X152437500Y-95775000D03*
X152437500Y-95125000D03*
X152437500Y-94475000D03*
X152437500Y-93825000D03*
X152437500Y-93175000D03*
X152437500Y-92525000D03*
X152437500Y-91875000D03*
X152437500Y-91225000D03*
X152437500Y-90575000D03*
X152437500Y-89925000D03*
X152437500Y-89275000D03*
%TD*%
D74*
%TO.C,Y1*%
X156450000Y-103050000D03*
X156450000Y-105250000D03*
X154750000Y-105250000D03*
X154750000Y-103050000D03*
%TD*%
M02*
