M48
; DRILL file {KiCad 9.0.0} date 2025-07-22T14:39:17-0400
; FORMAT={-:-/ absolute / metric / decimal}
; #@! TF.CreationDate,2025-07-22T14:39:17-04:00
; #@! TF.GenerationSoftware,Kicad,Pcbnew,9.0.0
; #@! TF.FileFunction,Plated,1,4,PTH
FMAT,2
METRIC
; #@! TA.AperFunction,Plated,PTH,ViaDrill
T1C0.300
; #@! TA.AperFunction,Plated,PTH,ComponentDrill
T2C0.300
; #@! TA.AperFunction,Plated,PTH,ComponentDrill
T3C0.600
; #@! TA.AperFunction,Plated,PTH,ComponentDrill
T4C0.900
; #@! TA.AperFunction,Plated,PTH,ComponentDrill
T5C1.000
; #@! TA.AperFunction,Plated,PTH,ComponentDrill
T6C1.020
; #@! TA.AperFunction,Plated,PTH,ComponentDrill
T7C1.100
%
G90
G05
T1
X117.35Y-77.3
X117.35Y-79.174
X117.35Y-81.047
X117.35Y-82.921
X117.6Y-118.3
X117.85Y-121.361
X117.85Y-123.235
X117.85Y-125.108
X117.85Y-126.982
X117.85Y-128.856
X117.85Y-130.729
X117.85Y-132.603
X117.85Y-134.476
X117.85Y-136.35
X117.85Y-138.224
X118.75Y-66.425
X118.903Y-64.15
X118.95Y-70.2
X119.0Y-88.3
X119.05Y-86.5
X119.15Y-99.15
X119.2Y-90.1
X119.25Y-91.9
X119.35Y-104.45
X119.35Y-109.55
X119.4Y-93.7
X119.476Y-112.274
X119.5Y-101.1
X119.55Y-95.6
X119.55Y-102.751
X119.55Y-113.55
X119.6Y-97.35
X119.65Y-66.425
X119.7Y-108.25
X119.75Y-106.4
X119.826Y-140.55
X119.85Y-116.7
X120.45Y-101.25
X120.5Y-70.25
X120.55Y-66.425
X120.7Y-72.7
X120.776Y-64.15
X121.7Y-140.55
X122.05Y-70.25
X122.65Y-64.15
X123.1Y-73.55
X123.1Y-85.9
X123.574Y-140.55
X124.5Y-73.55
X124.65Y-84.75
X124.675Y-79.925
X124.725Y-80.85
X124.9Y-85.9
X125.447Y-140.55
X126.25Y-76.85
X126.3Y-70.75
X126.55Y-80.35
X127.321Y-140.55
X127.8Y-70.2
X127.975Y-66.05
X128.125Y-80.225
X128.871Y-103.754
X129.194Y-140.55
X129.864Y-70.9
X129.879Y-73.0
X130.05Y-88.05
X130.05Y-89.85
X130.65Y-118.965
X130.65Y-120.45
X130.65Y-122.324
X130.65Y-124.197
X130.65Y-126.071
X130.87Y-103.889
X131.068Y-140.55
X131.2Y-106.95
X131.35Y-105.65
X131.737Y-70.9
X131.753Y-73.0
X131.801Y-98.55
X132.6Y-98.5
X132.6Y-100.3
X132.75Y-118.95
X132.75Y-120.435
X132.75Y-122.308
X132.75Y-124.182
X132.75Y-126.056
X132.942Y-140.55
X133.4Y-86.2
X133.45Y-116.8
X133.611Y-70.9
X133.626Y-73.0
X133.75Y-76.6
X133.85Y-110.5
X134.15Y-100.15
X134.2Y-90.25
X134.7Y-118.965
X134.7Y-120.45
X134.7Y-122.324
X134.7Y-124.197
X134.815Y-140.55
X135.1Y-115.4
X135.117Y-85.75
X135.132Y-87.85
X135.485Y-70.9
X135.5Y-73.0
X135.55Y-76.6
X135.65Y-110.5
X135.8Y-139.9
X136.055Y-106.256
X136.4Y-120.85
X136.689Y-140.55
X136.99Y-85.75
X137.006Y-87.85
X137.25Y-100.1
X138.6Y-106.75
X138.879Y-87.85
X138.9Y-110.1
X138.95Y-116.2
X139.15Y-95.95
X139.188Y-76.55
X139.25Y-90.5
X139.45Y-113.15
X139.55Y-114.65
X139.55Y-119.1
X140.181Y-104.9
X140.737Y-85.75
X140.75Y-130.1
X140.75Y-131.9
X140.95Y-95.95
X140.95Y-111.65
X140.95Y-113.2
X141.061Y-76.55
X141.076Y-78.65
X141.6Y-93.125
X142.2Y-99.0
X142.225Y-106.926
X142.611Y-85.75
X142.626Y-87.85
X142.7Y-113.15
X142.935Y-76.55
X143.2Y-115.15
X143.3Y-99.7
X143.326Y-90.45
X143.6Y-110.9
X144.05Y-64.2
X144.05Y-65.05
X144.05Y-65.9
X144.201Y-104.169
X144.3Y-63.35
X144.4Y-72.55
X144.485Y-85.75
X144.5Y-87.85
X144.62Y-108.437
X144.65Y-66.6
X145.15Y-63.15
X145.2Y-90.45
X145.55Y-66.6
X145.814Y-71.15
X145.829Y-73.25
X145.9Y-63.15
X146.3Y-104.55
X146.4Y-66.6
X146.696Y-109.168
X146.75Y-63.2
X146.75Y-86.95
X147.1Y-117.2
X147.13Y-104.55
X147.184Y-97.8
X147.2Y-97.0
X147.213Y-121.318
X147.3Y-90.9
X147.3Y-95.152
X147.45Y-63.55
X147.5Y-66.6
X147.505Y-111.005
X147.688Y-71.15
X147.703Y-73.25
X147.838Y-98.26
X147.992Y-94.751
X148.05Y-121.35
X148.4Y-63.45
X148.4Y-113.5
X148.501Y-105.199
X148.6Y-90.1
X148.649Y-96.4
X148.65Y-99.275
X148.654Y-95.2
X148.7Y-100.25
X148.725Y-111.874
X148.775Y-101.048
X149.209Y-107.935
X149.3Y-66.6
X149.35Y-63.5
X149.449Y-96.451
X149.5Y-113.25
X149.561Y-71.15
X149.576Y-73.25
X149.824Y-121.324
X149.883Y-101.023
X149.905Y-109.704
X150.05Y-66.1
X150.142Y-103.245
X150.226Y-102.422
X150.4Y-63.5
X150.495Y-101.623
X150.65Y-111.85
X151.005Y-102.24
X151.05Y-90.0
X151.2Y-66.15
X151.2Y-94.352
X151.35Y-112.5
X151.4Y-63.5
X151.402Y-96.326
X151.435Y-71.15
X151.45Y-73.25
X151.55Y-87.0
X151.85Y-66.75
X151.85Y-129.8
X151.85Y-131.6
X152.0Y-112.0
X152.25Y-103.2
X152.387Y-76.4
X152.403Y-78.5
X152.5Y-63.5
X153.1Y-85.65
X153.15Y-107.45
X153.5Y-63.5
X153.5Y-88.6
X153.6Y-102.55
X153.6Y-103.5
X153.675Y-95.174
X153.9Y-66.75
X154.261Y-76.4
X154.35Y-66.1
X154.4Y-112.25
X154.45Y-88.5
X154.5Y-63.5
X154.525Y-89.424
X155.15Y-66.1
X155.25Y-86.85
X155.35Y-63.5
X156.0Y-94.948
X156.031Y-109.667
X156.049Y-108.675
X156.1Y-66.1
X156.135Y-76.4
X156.15Y-63.5
X156.15Y-119.1
X156.45Y-91.55
X156.7Y-67.0
X156.824Y-93.476
X156.9Y-63.65
X157.25Y-104.4
X157.276Y-139.95
X157.5Y-64.25
X157.55Y-69.0
X157.795Y-109.101
X157.864Y-71.9
X157.879Y-73.65
X157.95Y-114.05
X157.955Y-63.592
X158.038Y-86.938
X158.4Y-64.4
X158.4Y-65.25
X158.4Y-66.15
X158.409Y-108.588
X158.5Y-97.45
X158.6Y-110.184
X158.7Y-69.1
X159.0Y-63.7
X159.15Y-139.95
X159.184Y-108.35
X159.25Y-125.0
X159.65Y-69.1
X159.737Y-71.9
X159.753Y-73.65
X160.05Y-63.6
X160.05Y-128.05
X160.1Y-117.05
X160.4Y-89.35
X160.45Y-125.05
X160.6Y-69.1
X160.8Y-66.65
X160.95Y-118.0
X161.0Y-116.05
X161.0Y-120.1
X161.024Y-139.95
X161.05Y-122.1
X161.2Y-104.45
X161.3Y-63.2
X161.5Y-124.65
X161.6Y-69.1
X161.6Y-126.7
X161.611Y-71.9
X161.626Y-73.65
X161.85Y-123.4
X161.95Y-66.65
X162.124Y-97.628
X162.25Y-93.95
X162.3Y-89.6
X162.4Y-63.5
X162.75Y-69.1
X162.8Y-67.85
X162.8Y-86.45
X162.897Y-139.95
X162.9Y-90.8
X162.95Y-95.1
X162.95Y-111.75
X163.05Y-103.5
X163.15Y-97.6
X163.274Y-117.1
X163.349Y-115.6
X163.485Y-71.9
X163.5Y-73.65
X163.55Y-65.55
X163.95Y-63.2
X164.15Y-66.1
X164.35Y-84.9
X164.35Y-104.9
X164.4Y-101.25
X164.75Y-66.65
X164.771Y-139.95
X165.15Y-63.0
X165.175Y-75.85
X165.249Y-108.999
X165.35Y-67.2
X166.55Y-71.5
X166.644Y-139.95
X166.65Y-67.5
X167.35Y-103.3
X167.65Y-67.5
X167.65Y-84.7
X167.75Y-63.05
X168.1Y-69.45
X168.518Y-139.95
X168.6Y-63.05
X168.8Y-71.2
X168.85Y-76.95
X169.137Y-65.913
X169.3Y-73.7
X169.762Y-71.162
X170.0Y-76.95
X170.081Y-62.95
X170.3Y-80.0
X170.392Y-139.95
X170.536Y-71.438
X170.55Y-75.75
X170.6Y-83.85
X171.08Y-74.12
X171.176Y-71.976
X172.1Y-64.35
X172.265Y-139.95
X172.55Y-71.5
X172.55Y-74.324
X172.642Y-78.742
X173.15Y-77.302
X173.65Y-70.55
X174.139Y-139.95
X174.3Y-63.25
X174.414Y-94.075
X174.535Y-114.7
X174.55Y-116.8
X174.55Y-118.75
X174.55Y-120.65
X174.65Y-73.1
X174.7Y-125.4
X174.7Y-127.8
X175.049Y-98.412
X175.05Y-100.25
X175.05Y-101.4
X175.1Y-91.1
X175.175Y-92.8
X175.45Y-77.8
X175.45Y-80.0
X175.45Y-82.0
X175.65Y-70.25
X175.8Y-67.55
X175.95Y-63.4
X175.95Y-97.362
X176.285Y-130.55
X176.3Y-71.3
X176.3Y-132.65
X176.3Y-134.6
X176.3Y-136.5
X176.3Y-138.3
X176.35Y-129.05
X176.85Y-64.8
X177.009Y-105.028
T2
X124.15Y-68.5
X124.15Y-69.5
X124.9Y-69.0
X125.65Y-68.5
X125.65Y-69.5
T4
X139.56Y-64.95
X142.1Y-64.95
T5
X140.185Y-140.125
X142.725Y-140.125
X145.265Y-140.125
X145.85Y-64.85
X148.835Y-140.125
X151.375Y-140.125
X153.915Y-140.125
X175.45Y-75.0
X175.45Y-85.0
X176.175Y-107.725
X176.175Y-110.265
X176.175Y-112.805
T6
X139.555Y-72.4
X154.545Y-72.4
T7
X120.96Y-89.0
X120.96Y-93.5
X120.96Y-99.775
X120.96Y-104.275
X120.96Y-110.55
X120.96Y-115.05
X120.96Y-121.325
X120.96Y-125.825
X120.96Y-132.1
X120.96Y-136.6
X127.46Y-89.0
X127.46Y-99.775
X127.46Y-104.275
X127.46Y-110.55
X127.46Y-115.05
X127.46Y-121.325
X127.46Y-125.825
X127.46Y-132.1
X127.46Y-93.5
X127.46Y-136.6
X132.197Y-78.75
X132.197Y-83.25
X132.197Y-132.1
X132.197Y-136.6
X138.697Y-78.75
X138.697Y-83.25
X138.697Y-132.1
X138.697Y-136.6
X143.435Y-78.75
X143.435Y-83.25
X143.435Y-132.1
X143.435Y-136.6
X149.935Y-78.75
X149.935Y-83.25
X149.935Y-132.1
X149.935Y-136.6
X154.672Y-78.75
X154.672Y-83.25
X154.672Y-132.1
X154.672Y-136.6
X161.172Y-78.75
X161.172Y-83.25
X161.172Y-132.1
X161.172Y-136.6
X165.91Y-89.0
X165.91Y-93.5
X165.91Y-99.775
X165.91Y-104.275
X165.91Y-110.55
X165.91Y-115.05
X165.91Y-121.325
X165.91Y-125.825
X165.91Y-132.1
X165.91Y-136.6
X172.41Y-89.0
X172.41Y-99.775
X172.41Y-104.275
X172.41Y-110.55
X172.41Y-115.05
X172.41Y-121.325
X172.41Y-125.825
X172.41Y-132.1
X172.41Y-93.5
X172.41Y-136.6
T3
G00X118.385Y-75.93
M15
G01X119.185Y-75.93
M16
G05
G00X118.385Y-84.57
M15
G01X119.185Y-84.57
M16
G05
G00X122.415Y-75.93
M15
G01X123.515Y-75.93
M16
G05
G00X122.415Y-84.57
M15
G01X123.515Y-84.57
M16
G05
M30
