%TF.GenerationSoftware,KiCad,Pcbnew,9.0.0*%
%TF.CreationDate,2025-07-22T14:39:13-04:00*%
%TF.ProjectId,shipwreckedpcb,73686970-7772-4656-936b-65647063622e,rev?*%
%TF.SameCoordinates,Original*%
%TF.FileFunction,Other,User*%
%FSLAX46Y46*%
G04 Gerber Fmt 4.6, Leading zero omitted, Abs format (unit mm)*
G04 Created by KiCad (PCBNEW 9.0.0) date 2025-07-22 14:39:13*
%MOMM*%
%LPD*%
G01*
G04 APERTURE LIST*
%ADD10C,0.120711*%
G04 APERTURE END LIST*
D10*
X174360355Y-65320711D02*
G75*
G02*
X174239645Y-65320711I-60355J0D01*
G01*
X174239645Y-65320711D02*
G75*
G02*
X174360355Y-65320711I60355J0D01*
G01*
X143160355Y-103050000D02*
G75*
G02*
X143039645Y-103050000I-60355J0D01*
G01*
X143039645Y-103050000D02*
G75*
G02*
X143160355Y-103050000I60355J0D01*
G01*
X159860355Y-64200000D02*
G75*
G02*
X159739645Y-64200000I-60355J0D01*
G01*
X159739645Y-64200000D02*
G75*
G02*
X159860355Y-64200000I60355J0D01*
G01*
X159260355Y-88850000D02*
G75*
G02*
X159139645Y-88850000I-60355J0D01*
G01*
X159139645Y-88850000D02*
G75*
G02*
X159260355Y-88850000I60355J0D01*
G01*
X123210355Y-67000000D02*
G75*
G02*
X123089645Y-67000000I-60355J0D01*
G01*
X123089645Y-67000000D02*
G75*
G02*
X123210355Y-67000000I60355J0D01*
G01*
X171510355Y-82850000D02*
G75*
G02*
X171389645Y-82850000I-60355J0D01*
G01*
X171389645Y-82850000D02*
G75*
G02*
X171510355Y-82850000I60355J0D01*
G01*
X156760355Y-122800000D02*
G75*
G02*
X156639645Y-122800000I-60355J0D01*
G01*
X156639645Y-122800000D02*
G75*
G02*
X156760355Y-122800000I60355J0D01*
G01*
X163310355Y-122300000D02*
G75*
G02*
X163189645Y-122300000I-60355J0D01*
G01*
X163189645Y-122300000D02*
G75*
G02*
X163310355Y-122300000I60355J0D01*
G01*
X153310355Y-119600000D02*
G75*
G02*
X153189645Y-119600000I-60355J0D01*
G01*
X153189645Y-119600000D02*
G75*
G02*
X153310355Y-119600000I60355J0D01*
G01*
X159310355Y-122800000D02*
G75*
G02*
X159189645Y-122800000I-60355J0D01*
G01*
X159189645Y-122800000D02*
G75*
G02*
X159310355Y-122800000I60355J0D01*
G01*
X127860355Y-63350000D02*
G75*
G02*
X127739645Y-63350000I-60355J0D01*
G01*
X127739645Y-63350000D02*
G75*
G02*
X127860355Y-63350000I60355J0D01*
G01*
X162510355Y-63950000D02*
G75*
G02*
X162389645Y-63950000I-60355J0D01*
G01*
X162389645Y-63950000D02*
G75*
G02*
X162510355Y-63950000I60355J0D01*
G01*
X140710355Y-117800000D02*
G75*
G02*
X140589645Y-117800000I-60355J0D01*
G01*
X140589645Y-117800000D02*
G75*
G02*
X140710355Y-117800000I60355J0D01*
G01*
X138160355Y-102450000D02*
G75*
G02*
X138039645Y-102450000I-60355J0D01*
G01*
X138039645Y-102450000D02*
G75*
G02*
X138160355Y-102450000I60355J0D01*
G01*
X129210355Y-83650000D02*
G75*
G02*
X129089645Y-83650000I-60355J0D01*
G01*
X129089645Y-83650000D02*
G75*
G02*
X129210355Y-83650000I60355J0D01*
G01*
X158360355Y-114850000D02*
G75*
G02*
X158239645Y-114850000I-60355J0D01*
G01*
X158239645Y-114850000D02*
G75*
G02*
X158360355Y-114850000I60355J0D01*
G01*
X157310355Y-102100000D02*
G75*
G02*
X157189645Y-102100000I-60355J0D01*
G01*
X157189645Y-102100000D02*
G75*
G02*
X157310355Y-102100000I60355J0D01*
G01*
X169610355Y-66450000D02*
G75*
G02*
X169489645Y-66450000I-60355J0D01*
G01*
X169489645Y-66450000D02*
G75*
G02*
X169610355Y-66450000I60355J0D01*
G01*
M02*
